G04 #@! TF.GenerationSoftware,KiCad,Pcbnew,5.0.2-bee76a0~70~ubuntu18.04.1*
G04 #@! TF.CreationDate,2019-03-03T11:08:54+02:00*
G04 #@! TF.ProjectId,1Cell_LiPO_BOOST_converter,3143656c-6c5f-44c6-9950-4f5f424f4f53,B*
G04 #@! TF.SameCoordinates,Original*
G04 #@! TF.FileFunction,Soldermask,Top*
G04 #@! TF.FilePolarity,Negative*
%FSLAX46Y46*%
G04 Gerber Fmt 4.6, Leading zero omitted, Abs format (unit mm)*
G04 Created by KiCad (PCBNEW 5.0.2-bee76a0~70~ubuntu18.04.1) date 2019 m. kovo 03 d. 11:08:54*
%MOMM*%
%LPD*%
G01*
G04 APERTURE LIST*
%ADD10C,0.100000*%
G04 APERTURE END LIST*
D10*
G36*
X129976000Y-113464000D02*
X129978402Y-113488386D01*
X129985515Y-113511835D01*
X129997066Y-113533446D01*
X130012612Y-113552388D01*
X130031554Y-113567934D01*
X130053165Y-113579485D01*
X130076614Y-113586598D01*
X130101000Y-113589000D01*
X132376000Y-113589000D01*
X132376000Y-120091000D01*
X130101000Y-120091000D01*
X130076614Y-120093402D01*
X130053165Y-120100515D01*
X130031554Y-120112066D01*
X130012612Y-120127612D01*
X129997066Y-120146554D01*
X129985515Y-120168165D01*
X129978402Y-120191614D01*
X129976000Y-120216000D01*
X129976000Y-120988500D01*
X127974000Y-120988500D01*
X127974000Y-117041500D01*
X129976000Y-117041500D01*
X129976000Y-118389000D01*
X129978402Y-118413386D01*
X129985515Y-118436835D01*
X129997066Y-118458446D01*
X130012612Y-118477388D01*
X130031554Y-118492934D01*
X130053165Y-118504485D01*
X130076614Y-118511598D01*
X130101000Y-118514000D01*
X130769000Y-118514000D01*
X130793386Y-118511598D01*
X130816835Y-118504485D01*
X130838446Y-118492934D01*
X130857388Y-118477388D01*
X130872934Y-118458446D01*
X130884485Y-118436835D01*
X130891598Y-118413386D01*
X130894000Y-118389000D01*
X130894000Y-115291000D01*
X130891598Y-115266614D01*
X130884485Y-115243165D01*
X130872934Y-115221554D01*
X130857388Y-115202612D01*
X130838446Y-115187066D01*
X130816835Y-115175515D01*
X130793386Y-115168402D01*
X130769000Y-115166000D01*
X130101000Y-115166000D01*
X130076614Y-115168402D01*
X130053165Y-115175515D01*
X130031554Y-115187066D01*
X130012612Y-115202612D01*
X129997066Y-115221554D01*
X129985515Y-115243165D01*
X129978402Y-115266614D01*
X129976000Y-115291000D01*
X129976000Y-116638500D01*
X127974000Y-116638500D01*
X127974000Y-112691500D01*
X129976000Y-112691500D01*
X129976000Y-113464000D01*
X129976000Y-113464000D01*
G37*
G36*
X156476000Y-120281000D02*
X154674000Y-120281000D01*
X154674000Y-118479000D01*
X156476000Y-118479000D01*
X156476000Y-120281000D01*
X156476000Y-120281000D01*
G37*
G36*
X146634466Y-118513565D02*
X146673137Y-118525296D01*
X146708779Y-118544348D01*
X146740017Y-118569983D01*
X146765652Y-118601221D01*
X146784704Y-118636863D01*
X146796435Y-118675534D01*
X146801000Y-118721888D01*
X146801000Y-119373112D01*
X146796435Y-119419466D01*
X146784704Y-119458137D01*
X146765652Y-119493779D01*
X146740017Y-119525017D01*
X146708779Y-119550652D01*
X146673137Y-119569704D01*
X146634466Y-119581435D01*
X146588112Y-119586000D01*
X145511888Y-119586000D01*
X145465534Y-119581435D01*
X145426863Y-119569704D01*
X145391221Y-119550652D01*
X145359983Y-119525017D01*
X145334348Y-119493779D01*
X145315296Y-119458137D01*
X145303565Y-119419466D01*
X145299000Y-119373112D01*
X145299000Y-118721888D01*
X145303565Y-118675534D01*
X145315296Y-118636863D01*
X145334348Y-118601221D01*
X145359983Y-118569983D01*
X145391221Y-118544348D01*
X145426863Y-118525296D01*
X145465534Y-118513565D01*
X145511888Y-118509000D01*
X146588112Y-118509000D01*
X146634466Y-118513565D01*
X146634466Y-118513565D01*
G37*
G36*
X137864466Y-117998565D02*
X137903137Y-118010296D01*
X137938779Y-118029348D01*
X137970017Y-118054983D01*
X137995652Y-118086221D01*
X138014704Y-118121863D01*
X138026435Y-118160534D01*
X138031000Y-118206888D01*
X138031000Y-119283112D01*
X138026435Y-119329466D01*
X138014704Y-119368137D01*
X137995652Y-119403779D01*
X137970017Y-119435017D01*
X137938779Y-119460652D01*
X137903137Y-119479704D01*
X137864466Y-119491435D01*
X137818112Y-119496000D01*
X137166888Y-119496000D01*
X137120534Y-119491435D01*
X137081863Y-119479704D01*
X137046221Y-119460652D01*
X137014983Y-119435017D01*
X136989348Y-119403779D01*
X136970296Y-119368137D01*
X136958565Y-119329466D01*
X136954000Y-119283112D01*
X136954000Y-118206888D01*
X136958565Y-118160534D01*
X136970296Y-118121863D01*
X136989348Y-118086221D01*
X137014983Y-118054983D01*
X137046221Y-118029348D01*
X137081863Y-118010296D01*
X137120534Y-117998565D01*
X137166888Y-117994000D01*
X137818112Y-117994000D01*
X137864466Y-117998565D01*
X137864466Y-117998565D01*
G37*
G36*
X143549466Y-117998565D02*
X143588137Y-118010296D01*
X143623779Y-118029348D01*
X143655017Y-118054983D01*
X143680652Y-118086221D01*
X143699704Y-118121863D01*
X143711435Y-118160534D01*
X143716000Y-118206888D01*
X143716000Y-119283112D01*
X143711435Y-119329466D01*
X143699704Y-119368137D01*
X143680652Y-119403779D01*
X143655017Y-119435017D01*
X143623779Y-119460652D01*
X143588137Y-119479704D01*
X143549466Y-119491435D01*
X143503112Y-119496000D01*
X142851888Y-119496000D01*
X142805534Y-119491435D01*
X142766863Y-119479704D01*
X142731221Y-119460652D01*
X142699983Y-119435017D01*
X142674348Y-119403779D01*
X142655296Y-119368137D01*
X142643565Y-119329466D01*
X142639000Y-119283112D01*
X142639000Y-118206888D01*
X142643565Y-118160534D01*
X142655296Y-118121863D01*
X142674348Y-118086221D01*
X142699983Y-118054983D01*
X142731221Y-118029348D01*
X142766863Y-118010296D01*
X142805534Y-117998565D01*
X142851888Y-117994000D01*
X143503112Y-117994000D01*
X143549466Y-117998565D01*
X143549466Y-117998565D01*
G37*
G36*
X141674466Y-117998565D02*
X141713137Y-118010296D01*
X141748779Y-118029348D01*
X141780017Y-118054983D01*
X141805652Y-118086221D01*
X141824704Y-118121863D01*
X141836435Y-118160534D01*
X141841000Y-118206888D01*
X141841000Y-119283112D01*
X141836435Y-119329466D01*
X141824704Y-119368137D01*
X141805652Y-119403779D01*
X141780017Y-119435017D01*
X141748779Y-119460652D01*
X141713137Y-119479704D01*
X141674466Y-119491435D01*
X141628112Y-119496000D01*
X140976888Y-119496000D01*
X140930534Y-119491435D01*
X140891863Y-119479704D01*
X140856221Y-119460652D01*
X140824983Y-119435017D01*
X140799348Y-119403779D01*
X140780296Y-119368137D01*
X140768565Y-119329466D01*
X140764000Y-119283112D01*
X140764000Y-118206888D01*
X140768565Y-118160534D01*
X140780296Y-118121863D01*
X140799348Y-118086221D01*
X140824983Y-118054983D01*
X140856221Y-118029348D01*
X140891863Y-118010296D01*
X140930534Y-117998565D01*
X140976888Y-117994000D01*
X141628112Y-117994000D01*
X141674466Y-117998565D01*
X141674466Y-117998565D01*
G37*
G36*
X139739466Y-117998565D02*
X139778137Y-118010296D01*
X139813779Y-118029348D01*
X139845017Y-118054983D01*
X139870652Y-118086221D01*
X139889704Y-118121863D01*
X139901435Y-118160534D01*
X139906000Y-118206888D01*
X139906000Y-119283112D01*
X139901435Y-119329466D01*
X139889704Y-119368137D01*
X139870652Y-119403779D01*
X139845017Y-119435017D01*
X139813779Y-119460652D01*
X139778137Y-119479704D01*
X139739466Y-119491435D01*
X139693112Y-119496000D01*
X139041888Y-119496000D01*
X138995534Y-119491435D01*
X138956863Y-119479704D01*
X138921221Y-119460652D01*
X138889983Y-119435017D01*
X138864348Y-119403779D01*
X138845296Y-119368137D01*
X138833565Y-119329466D01*
X138829000Y-119283112D01*
X138829000Y-118206888D01*
X138833565Y-118160534D01*
X138845296Y-118121863D01*
X138864348Y-118086221D01*
X138889983Y-118054983D01*
X138921221Y-118029348D01*
X138956863Y-118010296D01*
X138995534Y-117998565D01*
X139041888Y-117994000D01*
X139693112Y-117994000D01*
X139739466Y-117998565D01*
X139739466Y-117998565D01*
G37*
G36*
X135395562Y-116933181D02*
X135430477Y-116943773D01*
X135462665Y-116960978D01*
X135490873Y-116984127D01*
X135514022Y-117012335D01*
X135531227Y-117044523D01*
X135541819Y-117079438D01*
X135546000Y-117121895D01*
X135546000Y-118263105D01*
X135541819Y-118305562D01*
X135531227Y-118340477D01*
X135514022Y-118372665D01*
X135490873Y-118400873D01*
X135462665Y-118424022D01*
X135430477Y-118441227D01*
X135395562Y-118451819D01*
X135353105Y-118456000D01*
X133886895Y-118456000D01*
X133844438Y-118451819D01*
X133809523Y-118441227D01*
X133777335Y-118424022D01*
X133749127Y-118400873D01*
X133725978Y-118372665D01*
X133708773Y-118340477D01*
X133698181Y-118305562D01*
X133694000Y-118263105D01*
X133694000Y-117121895D01*
X133698181Y-117079438D01*
X133708773Y-117044523D01*
X133725978Y-117012335D01*
X133749127Y-116984127D01*
X133777335Y-116960978D01*
X133809523Y-116943773D01*
X133844438Y-116933181D01*
X133886895Y-116929000D01*
X135353105Y-116929000D01*
X135395562Y-116933181D01*
X135395562Y-116933181D01*
G37*
G36*
X155685442Y-115945518D02*
X155751627Y-115952037D01*
X155864853Y-115986384D01*
X155921467Y-116003557D01*
X156060087Y-116077652D01*
X156077991Y-116087222D01*
X156113729Y-116116552D01*
X156215186Y-116199814D01*
X156298448Y-116301271D01*
X156327778Y-116337009D01*
X156327779Y-116337011D01*
X156411443Y-116493533D01*
X156411443Y-116493534D01*
X156462963Y-116663373D01*
X156480359Y-116840000D01*
X156462963Y-117016627D01*
X156439378Y-117094376D01*
X156411443Y-117186467D01*
X156405869Y-117196895D01*
X156327778Y-117342991D01*
X156302101Y-117374278D01*
X156215186Y-117480186D01*
X156123229Y-117555652D01*
X156077991Y-117592778D01*
X156077989Y-117592779D01*
X155921467Y-117676443D01*
X155875110Y-117690505D01*
X155751627Y-117727963D01*
X155685442Y-117734482D01*
X155619260Y-117741000D01*
X155530740Y-117741000D01*
X155464558Y-117734482D01*
X155398373Y-117727963D01*
X155274890Y-117690505D01*
X155228533Y-117676443D01*
X155072011Y-117592779D01*
X155072009Y-117592778D01*
X155026771Y-117555652D01*
X154934814Y-117480186D01*
X154847899Y-117374278D01*
X154822222Y-117342991D01*
X154744131Y-117196895D01*
X154738557Y-117186467D01*
X154710622Y-117094376D01*
X154687037Y-117016627D01*
X154669641Y-116840000D01*
X154687037Y-116663373D01*
X154738557Y-116493534D01*
X154738557Y-116493533D01*
X154822221Y-116337011D01*
X154822222Y-116337009D01*
X154851552Y-116301271D01*
X154934814Y-116199814D01*
X155036271Y-116116552D01*
X155072009Y-116087222D01*
X155089913Y-116077652D01*
X155228533Y-116003557D01*
X155285147Y-115986384D01*
X155398373Y-115952037D01*
X155464558Y-115945518D01*
X155530740Y-115939000D01*
X155619260Y-115939000D01*
X155685442Y-115945518D01*
X155685442Y-115945518D01*
G37*
G36*
X146634466Y-116638565D02*
X146673137Y-116650296D01*
X146708779Y-116669348D01*
X146740017Y-116694983D01*
X146765652Y-116726221D01*
X146784704Y-116761863D01*
X146796435Y-116800534D01*
X146801000Y-116846888D01*
X146801000Y-117498112D01*
X146796435Y-117544466D01*
X146784704Y-117583137D01*
X146765652Y-117618779D01*
X146740017Y-117650017D01*
X146708779Y-117675652D01*
X146673137Y-117694704D01*
X146634466Y-117706435D01*
X146588112Y-117711000D01*
X145511888Y-117711000D01*
X145465534Y-117706435D01*
X145426863Y-117694704D01*
X145391221Y-117675652D01*
X145359983Y-117650017D01*
X145334348Y-117618779D01*
X145315296Y-117583137D01*
X145303565Y-117544466D01*
X145299000Y-117498112D01*
X145299000Y-116846888D01*
X145303565Y-116800534D01*
X145315296Y-116761863D01*
X145334348Y-116726221D01*
X145359983Y-116694983D01*
X145391221Y-116669348D01*
X145426863Y-116650296D01*
X145465534Y-116638565D01*
X145511888Y-116634000D01*
X146588112Y-116634000D01*
X146634466Y-116638565D01*
X146634466Y-116638565D01*
G37*
G36*
X141674466Y-116093565D02*
X141713137Y-116105296D01*
X141748779Y-116124348D01*
X141780017Y-116149983D01*
X141805652Y-116181221D01*
X141824704Y-116216863D01*
X141836435Y-116255534D01*
X141841000Y-116301888D01*
X141841000Y-117378112D01*
X141836435Y-117424466D01*
X141824704Y-117463137D01*
X141805652Y-117498779D01*
X141780017Y-117530017D01*
X141748779Y-117555652D01*
X141713137Y-117574704D01*
X141674466Y-117586435D01*
X141628112Y-117591000D01*
X140976888Y-117591000D01*
X140930534Y-117586435D01*
X140891863Y-117574704D01*
X140856221Y-117555652D01*
X140824983Y-117530017D01*
X140799348Y-117498779D01*
X140780296Y-117463137D01*
X140768565Y-117424466D01*
X140764000Y-117378112D01*
X140764000Y-116301888D01*
X140768565Y-116255534D01*
X140780296Y-116216863D01*
X140799348Y-116181221D01*
X140824983Y-116149983D01*
X140856221Y-116124348D01*
X140891863Y-116105296D01*
X140930534Y-116093565D01*
X140976888Y-116089000D01*
X141628112Y-116089000D01*
X141674466Y-116093565D01*
X141674466Y-116093565D01*
G37*
G36*
X143549466Y-116093565D02*
X143588137Y-116105296D01*
X143623779Y-116124348D01*
X143655017Y-116149983D01*
X143680652Y-116181221D01*
X143699704Y-116216863D01*
X143711435Y-116255534D01*
X143716000Y-116301888D01*
X143716000Y-117378112D01*
X143711435Y-117424466D01*
X143699704Y-117463137D01*
X143680652Y-117498779D01*
X143655017Y-117530017D01*
X143623779Y-117555652D01*
X143588137Y-117574704D01*
X143549466Y-117586435D01*
X143503112Y-117591000D01*
X142851888Y-117591000D01*
X142805534Y-117586435D01*
X142766863Y-117574704D01*
X142731221Y-117555652D01*
X142699983Y-117530017D01*
X142674348Y-117498779D01*
X142655296Y-117463137D01*
X142643565Y-117424466D01*
X142639000Y-117378112D01*
X142639000Y-116301888D01*
X142643565Y-116255534D01*
X142655296Y-116216863D01*
X142674348Y-116181221D01*
X142699983Y-116149983D01*
X142731221Y-116124348D01*
X142766863Y-116105296D01*
X142805534Y-116093565D01*
X142851888Y-116089000D01*
X143503112Y-116089000D01*
X143549466Y-116093565D01*
X143549466Y-116093565D01*
G37*
G36*
X137911000Y-116896000D02*
X136749000Y-116896000D01*
X136749000Y-116144000D01*
X137911000Y-116144000D01*
X137911000Y-116896000D01*
X137911000Y-116896000D01*
G37*
G36*
X140111000Y-116896000D02*
X138949000Y-116896000D01*
X138949000Y-114244000D01*
X140111000Y-114244000D01*
X140111000Y-116896000D01*
X140111000Y-116896000D01*
G37*
G36*
X150874485Y-114318996D02*
X150874487Y-114318997D01*
X150874488Y-114318997D01*
X151111255Y-114417069D01*
X151324342Y-114559449D01*
X151505551Y-114740658D01*
X151505553Y-114740661D01*
X151647931Y-114953745D01*
X151744576Y-115187066D01*
X151746004Y-115190515D01*
X151796000Y-115441861D01*
X151796000Y-115698139D01*
X151748090Y-115939000D01*
X151746003Y-115949488D01*
X151665434Y-116144000D01*
X151647931Y-116186255D01*
X151505551Y-116399342D01*
X151324342Y-116580551D01*
X151324339Y-116580553D01*
X151111255Y-116722931D01*
X150874488Y-116821003D01*
X150874487Y-116821003D01*
X150874485Y-116821004D01*
X150623139Y-116871000D01*
X150366861Y-116871000D01*
X150115515Y-116821004D01*
X150115513Y-116821003D01*
X150115512Y-116821003D01*
X149878745Y-116722931D01*
X149665661Y-116580553D01*
X149665658Y-116580551D01*
X149484449Y-116399342D01*
X149342069Y-116186255D01*
X149324566Y-116144000D01*
X149243997Y-115949488D01*
X149241911Y-115939000D01*
X149194000Y-115698139D01*
X149194000Y-115441861D01*
X149243996Y-115190515D01*
X149245425Y-115187066D01*
X149342069Y-114953745D01*
X149484447Y-114740661D01*
X149484449Y-114740658D01*
X149665658Y-114559449D01*
X149878745Y-114417069D01*
X150115512Y-114318997D01*
X150115513Y-114318997D01*
X150115515Y-114318996D01*
X150366861Y-114269000D01*
X150623139Y-114269000D01*
X150874485Y-114318996D01*
X150874485Y-114318996D01*
G37*
G36*
X165479485Y-113048996D02*
X165479487Y-113048997D01*
X165479488Y-113048997D01*
X165622187Y-113108105D01*
X165716255Y-113147069D01*
X165929342Y-113289449D01*
X166110551Y-113470658D01*
X166252931Y-113683745D01*
X166351004Y-113920515D01*
X166401000Y-114171861D01*
X166401000Y-114428139D01*
X166373578Y-114566000D01*
X166351003Y-114679488D01*
X166325664Y-114740661D01*
X166252931Y-114916255D01*
X166110551Y-115129342D01*
X165929342Y-115310551D01*
X165929339Y-115310553D01*
X165716255Y-115452931D01*
X165479488Y-115551003D01*
X165479487Y-115551003D01*
X165479485Y-115551004D01*
X165228139Y-115601000D01*
X164971861Y-115601000D01*
X164720515Y-115551004D01*
X164720513Y-115551003D01*
X164720512Y-115551003D01*
X164483745Y-115452931D01*
X164270661Y-115310553D01*
X164270658Y-115310551D01*
X164089449Y-115129342D01*
X163947069Y-114916255D01*
X163874336Y-114740661D01*
X163848997Y-114679488D01*
X163826423Y-114566000D01*
X163799000Y-114428139D01*
X163799000Y-114171861D01*
X163848996Y-113920515D01*
X163947069Y-113683745D01*
X164089449Y-113470658D01*
X164270658Y-113289449D01*
X164483745Y-113147069D01*
X164577813Y-113108105D01*
X164720512Y-113048997D01*
X164720513Y-113048997D01*
X164720515Y-113048996D01*
X164971861Y-112999000D01*
X165228139Y-112999000D01*
X165479485Y-113048996D01*
X165479485Y-113048996D01*
G37*
G36*
X135395562Y-113958181D02*
X135430477Y-113968773D01*
X135462665Y-113985978D01*
X135490873Y-114009127D01*
X135514022Y-114037335D01*
X135531227Y-114069523D01*
X135541819Y-114104438D01*
X135546000Y-114146895D01*
X135546000Y-115288105D01*
X135541819Y-115330562D01*
X135531227Y-115365477D01*
X135514022Y-115397665D01*
X135490873Y-115425873D01*
X135462665Y-115449022D01*
X135430477Y-115466227D01*
X135395562Y-115476819D01*
X135353105Y-115481000D01*
X133886895Y-115481000D01*
X133844438Y-115476819D01*
X133809523Y-115466227D01*
X133777335Y-115449022D01*
X133749127Y-115425873D01*
X133725978Y-115397665D01*
X133708773Y-115365477D01*
X133698181Y-115330562D01*
X133694000Y-115288105D01*
X133694000Y-114146895D01*
X133698181Y-114104438D01*
X133708773Y-114069523D01*
X133725978Y-114037335D01*
X133749127Y-114009127D01*
X133777335Y-113985978D01*
X133809523Y-113968773D01*
X133844438Y-113958181D01*
X133886895Y-113954000D01*
X135353105Y-113954000D01*
X135395562Y-113958181D01*
X135395562Y-113958181D01*
G37*
G36*
X137911000Y-114996000D02*
X136749000Y-114996000D01*
X136749000Y-114244000D01*
X137911000Y-114244000D01*
X137911000Y-114996000D01*
X137911000Y-114996000D01*
G37*
G36*
X145525442Y-112770518D02*
X145591627Y-112777037D01*
X145704853Y-112811384D01*
X145761467Y-112828557D01*
X145874546Y-112889000D01*
X145917991Y-112912222D01*
X145953729Y-112941552D01*
X146055186Y-113024814D01*
X146123540Y-113108105D01*
X146167778Y-113162009D01*
X146167779Y-113162011D01*
X146251443Y-113318533D01*
X146251443Y-113318534D01*
X146302963Y-113488373D01*
X146320359Y-113665000D01*
X146302963Y-113841627D01*
X146268875Y-113954000D01*
X146251443Y-114011467D01*
X146179054Y-114146895D01*
X146167778Y-114167991D01*
X146164600Y-114171863D01*
X146055186Y-114305186D01*
X145953729Y-114388448D01*
X145917991Y-114417778D01*
X145917989Y-114417779D01*
X145761467Y-114501443D01*
X145704853Y-114518616D01*
X145591627Y-114552963D01*
X145525793Y-114559447D01*
X145459260Y-114566000D01*
X145370740Y-114566000D01*
X145304207Y-114559447D01*
X145238373Y-114552963D01*
X145125147Y-114518616D01*
X145068533Y-114501443D01*
X144912011Y-114417779D01*
X144912009Y-114417778D01*
X144876271Y-114388448D01*
X144774814Y-114305186D01*
X144665400Y-114171863D01*
X144662222Y-114167991D01*
X144650946Y-114146895D01*
X144578557Y-114011467D01*
X144561125Y-113954000D01*
X144527037Y-113841627D01*
X144509641Y-113665000D01*
X144527037Y-113488373D01*
X144578557Y-113318534D01*
X144578557Y-113318533D01*
X144662221Y-113162011D01*
X144662222Y-113162009D01*
X144706460Y-113108105D01*
X144774814Y-113024814D01*
X144876271Y-112941552D01*
X144912009Y-112912222D01*
X144955454Y-112889000D01*
X145068533Y-112828557D01*
X145125147Y-112811384D01*
X145238373Y-112777037D01*
X145304558Y-112770518D01*
X145370740Y-112764000D01*
X145459260Y-112764000D01*
X145525442Y-112770518D01*
X145525442Y-112770518D01*
G37*
G36*
X157361000Y-114491000D02*
X155059000Y-114491000D01*
X155059000Y-112889000D01*
X157361000Y-112889000D01*
X157361000Y-114491000D01*
X157361000Y-114491000D01*
G37*
G36*
X162065562Y-111853181D02*
X162100477Y-111863773D01*
X162132665Y-111880978D01*
X162160873Y-111904127D01*
X162184022Y-111932335D01*
X162201227Y-111964523D01*
X162211819Y-111999438D01*
X162216000Y-112041895D01*
X162216000Y-113183105D01*
X162211819Y-113225562D01*
X162201227Y-113260477D01*
X162184022Y-113292665D01*
X162160873Y-113320873D01*
X162132665Y-113344022D01*
X162100477Y-113361227D01*
X162065562Y-113371819D01*
X162023105Y-113376000D01*
X160556895Y-113376000D01*
X160514438Y-113371819D01*
X160479523Y-113361227D01*
X160447335Y-113344022D01*
X160419127Y-113320873D01*
X160395978Y-113292665D01*
X160378773Y-113260477D01*
X160368181Y-113225562D01*
X160364000Y-113183105D01*
X160364000Y-112041895D01*
X160368181Y-111999438D01*
X160378773Y-111964523D01*
X160395978Y-111932335D01*
X160419127Y-111904127D01*
X160447335Y-111880978D01*
X160479523Y-111863773D01*
X160514438Y-111853181D01*
X160556895Y-111849000D01*
X162023105Y-111849000D01*
X162065562Y-111853181D01*
X162065562Y-111853181D01*
G37*
G36*
X146316000Y-112026000D02*
X144514000Y-112026000D01*
X144514000Y-110224000D01*
X146316000Y-110224000D01*
X146316000Y-112026000D01*
X146316000Y-112026000D01*
G37*
G36*
X142502198Y-108654954D02*
X142514450Y-108655556D01*
X142532869Y-108655556D01*
X142555149Y-108657750D01*
X142639236Y-108674476D01*
X142660655Y-108680974D01*
X142739871Y-108713785D01*
X142759607Y-108724335D01*
X142830897Y-108771969D01*
X142848208Y-108786176D01*
X142908824Y-108846792D01*
X142923031Y-108864103D01*
X142970665Y-108935393D01*
X142981215Y-108955129D01*
X143014026Y-109034345D01*
X143020524Y-109055764D01*
X143037250Y-109139851D01*
X143039444Y-109162131D01*
X143039444Y-109180550D01*
X143040046Y-109192802D01*
X143041852Y-109211140D01*
X143041852Y-109698860D01*
X143040263Y-109714999D01*
X143037347Y-109724611D01*
X143032612Y-109733469D01*
X143026237Y-109741237D01*
X143013798Y-109751446D01*
X143003432Y-109758372D01*
X142986105Y-109775698D01*
X142972490Y-109796073D01*
X142963112Y-109818711D01*
X142958331Y-109842745D01*
X142958331Y-109867249D01*
X142963111Y-109891283D01*
X142972487Y-109913922D01*
X142986101Y-109934297D01*
X143003427Y-109951624D01*
X143013796Y-109958552D01*
X143026237Y-109968763D01*
X143032612Y-109976531D01*
X143037347Y-109985389D01*
X143040263Y-109995001D01*
X143041852Y-110011140D01*
X143041852Y-110498861D01*
X143040046Y-110517198D01*
X143039444Y-110529450D01*
X143039444Y-110547869D01*
X143037250Y-110570149D01*
X143020524Y-110654236D01*
X143014026Y-110675655D01*
X142981215Y-110754871D01*
X142970665Y-110774607D01*
X142923031Y-110845897D01*
X142908824Y-110863208D01*
X142848208Y-110923824D01*
X142830897Y-110938031D01*
X142759607Y-110985665D01*
X142739871Y-110996215D01*
X142660655Y-111029026D01*
X142639236Y-111035524D01*
X142555149Y-111052250D01*
X142532869Y-111054444D01*
X142514450Y-111054444D01*
X142502198Y-111055046D01*
X142483861Y-111056852D01*
X141996139Y-111056852D01*
X141977802Y-111055046D01*
X141965550Y-111054444D01*
X141947131Y-111054444D01*
X141924851Y-111052250D01*
X141840764Y-111035524D01*
X141819345Y-111029026D01*
X141740129Y-110996215D01*
X141720393Y-110985665D01*
X141649103Y-110938031D01*
X141631792Y-110923824D01*
X141571176Y-110863208D01*
X141556969Y-110845897D01*
X141509335Y-110774607D01*
X141498785Y-110754871D01*
X141465974Y-110675655D01*
X141459476Y-110654236D01*
X141442750Y-110570149D01*
X141440556Y-110547869D01*
X141440556Y-110529450D01*
X141439954Y-110517198D01*
X141438148Y-110498861D01*
X141438148Y-110011140D01*
X141439737Y-109995001D01*
X141442653Y-109985389D01*
X141447388Y-109976531D01*
X141453763Y-109968763D01*
X141466202Y-109958554D01*
X141476568Y-109951628D01*
X141493895Y-109934302D01*
X141507510Y-109913927D01*
X141516888Y-109891289D01*
X141521669Y-109867255D01*
X141521669Y-109842751D01*
X141516889Y-109818717D01*
X141507513Y-109796078D01*
X141493899Y-109775703D01*
X141476573Y-109758376D01*
X141466204Y-109751448D01*
X141453763Y-109741237D01*
X141447388Y-109733469D01*
X141442653Y-109724611D01*
X141439737Y-109714999D01*
X141438148Y-109698860D01*
X141438148Y-109211140D01*
X141439954Y-109192802D01*
X141440556Y-109180550D01*
X141440556Y-109162131D01*
X141442750Y-109139851D01*
X141459476Y-109055764D01*
X141465974Y-109034345D01*
X141498785Y-108955129D01*
X141509335Y-108935393D01*
X141556969Y-108864103D01*
X141571176Y-108846792D01*
X141631792Y-108786176D01*
X141649103Y-108771969D01*
X141720393Y-108724335D01*
X141740129Y-108713785D01*
X141819345Y-108680974D01*
X141840764Y-108674476D01*
X141924851Y-108657750D01*
X141947131Y-108655556D01*
X141965550Y-108655556D01*
X141977802Y-108654954D01*
X141996140Y-108653148D01*
X142483860Y-108653148D01*
X142502198Y-108654954D01*
X142502198Y-108654954D01*
G37*
G36*
X162065562Y-108878181D02*
X162100477Y-108888773D01*
X162132665Y-108905978D01*
X162160873Y-108929127D01*
X162184022Y-108957335D01*
X162201227Y-108989523D01*
X162211819Y-109024438D01*
X162216000Y-109066895D01*
X162216000Y-110208105D01*
X162211819Y-110250562D01*
X162201227Y-110285477D01*
X162184022Y-110317665D01*
X162160873Y-110345873D01*
X162132665Y-110369022D01*
X162100477Y-110386227D01*
X162065562Y-110396819D01*
X162023105Y-110401000D01*
X160556895Y-110401000D01*
X160514438Y-110396819D01*
X160479523Y-110386227D01*
X160447335Y-110369022D01*
X160419127Y-110345873D01*
X160395978Y-110317665D01*
X160378773Y-110285477D01*
X160368181Y-110250562D01*
X160364000Y-110208105D01*
X160364000Y-109066895D01*
X160368181Y-109024438D01*
X160378773Y-108989523D01*
X160395978Y-108957335D01*
X160419127Y-108929127D01*
X160447335Y-108905978D01*
X160479523Y-108888773D01*
X160514438Y-108878181D01*
X160556895Y-108874000D01*
X162023105Y-108874000D01*
X162065562Y-108878181D01*
X162065562Y-108878181D01*
G37*
G36*
X166981000Y-108976000D02*
X166079000Y-108976000D01*
X166079000Y-107874000D01*
X166981000Y-107874000D01*
X166981000Y-108976000D01*
X166981000Y-108976000D01*
G37*
G36*
X164771000Y-108976000D02*
X163869000Y-108976000D01*
X163869000Y-107874000D01*
X164771000Y-107874000D01*
X164771000Y-108976000D01*
X164771000Y-108976000D01*
G37*
G36*
X157361000Y-108091000D02*
X155059000Y-108091000D01*
X155059000Y-106489000D01*
X157361000Y-106489000D01*
X157361000Y-108091000D01*
X157361000Y-108091000D01*
G37*
G36*
X144184466Y-106568565D02*
X144223137Y-106580296D01*
X144258779Y-106599348D01*
X144290017Y-106624983D01*
X144315652Y-106656221D01*
X144334704Y-106691863D01*
X144346435Y-106730534D01*
X144351000Y-106776888D01*
X144351000Y-107853112D01*
X144346435Y-107899466D01*
X144334704Y-107938137D01*
X144315652Y-107973779D01*
X144290017Y-108005017D01*
X144258779Y-108030652D01*
X144223137Y-108049704D01*
X144184466Y-108061435D01*
X144138112Y-108066000D01*
X143486888Y-108066000D01*
X143440534Y-108061435D01*
X143401863Y-108049704D01*
X143366221Y-108030652D01*
X143334983Y-108005017D01*
X143309348Y-107973779D01*
X143290296Y-107938137D01*
X143278565Y-107899466D01*
X143274000Y-107853112D01*
X143274000Y-106776888D01*
X143278565Y-106730534D01*
X143290296Y-106691863D01*
X143309348Y-106656221D01*
X143334983Y-106624983D01*
X143366221Y-106599348D01*
X143401863Y-106580296D01*
X143440534Y-106568565D01*
X143486888Y-106564000D01*
X144138112Y-106564000D01*
X144184466Y-106568565D01*
X144184466Y-106568565D01*
G37*
G36*
X142309466Y-106568565D02*
X142348137Y-106580296D01*
X142383779Y-106599348D01*
X142415017Y-106624983D01*
X142440652Y-106656221D01*
X142459704Y-106691863D01*
X142471435Y-106730534D01*
X142476000Y-106776888D01*
X142476000Y-107853112D01*
X142471435Y-107899466D01*
X142459704Y-107938137D01*
X142440652Y-107973779D01*
X142415017Y-108005017D01*
X142383779Y-108030652D01*
X142348137Y-108049704D01*
X142309466Y-108061435D01*
X142263112Y-108066000D01*
X141611888Y-108066000D01*
X141565534Y-108061435D01*
X141526863Y-108049704D01*
X141491221Y-108030652D01*
X141459983Y-108005017D01*
X141434348Y-107973779D01*
X141415296Y-107938137D01*
X141403565Y-107899466D01*
X141399000Y-107853112D01*
X141399000Y-106776888D01*
X141403565Y-106730534D01*
X141415296Y-106691863D01*
X141434348Y-106656221D01*
X141459983Y-106624983D01*
X141491221Y-106599348D01*
X141526863Y-106580296D01*
X141565534Y-106568565D01*
X141611888Y-106564000D01*
X142263112Y-106564000D01*
X142309466Y-106568565D01*
X142309466Y-106568565D01*
G37*
G36*
X150239485Y-105428996D02*
X150239487Y-105428997D01*
X150239488Y-105428997D01*
X150289682Y-105449788D01*
X150476255Y-105527069D01*
X150689342Y-105669449D01*
X150870551Y-105850658D01*
X150870553Y-105850661D01*
X151012931Y-106063745D01*
X151079997Y-106225656D01*
X151111004Y-106300515D01*
X151161000Y-106551861D01*
X151161000Y-106808139D01*
X151111004Y-107059485D01*
X151012931Y-107296255D01*
X150870551Y-107509342D01*
X150689342Y-107690551D01*
X150689339Y-107690553D01*
X150476255Y-107832931D01*
X150239488Y-107931003D01*
X150239487Y-107931003D01*
X150239485Y-107931004D01*
X149988139Y-107981000D01*
X149731861Y-107981000D01*
X149480515Y-107931004D01*
X149480513Y-107931003D01*
X149480512Y-107931003D01*
X149243745Y-107832931D01*
X149030661Y-107690553D01*
X149030658Y-107690551D01*
X148849449Y-107509342D01*
X148707069Y-107296255D01*
X148608996Y-107059485D01*
X148559000Y-106808139D01*
X148559000Y-106551861D01*
X148608996Y-106300515D01*
X148640004Y-106225656D01*
X148707069Y-106063745D01*
X148849447Y-105850661D01*
X148849449Y-105850658D01*
X149030658Y-105669449D01*
X149243745Y-105527069D01*
X149430318Y-105449788D01*
X149480512Y-105428997D01*
X149480513Y-105428997D01*
X149480515Y-105428996D01*
X149731861Y-105379000D01*
X149988139Y-105379000D01*
X150239485Y-105428996D01*
X150239485Y-105428996D01*
G37*
G36*
X135929466Y-105933565D02*
X135968137Y-105945296D01*
X136003779Y-105964348D01*
X136035017Y-105989983D01*
X136060652Y-106021221D01*
X136079704Y-106056863D01*
X136091435Y-106095534D01*
X136096000Y-106141888D01*
X136096000Y-107218112D01*
X136091435Y-107264466D01*
X136079704Y-107303137D01*
X136060652Y-107338779D01*
X136035017Y-107370017D01*
X136003779Y-107395652D01*
X135968137Y-107414704D01*
X135929466Y-107426435D01*
X135883112Y-107431000D01*
X135231888Y-107431000D01*
X135185534Y-107426435D01*
X135146863Y-107414704D01*
X135111221Y-107395652D01*
X135079983Y-107370017D01*
X135054348Y-107338779D01*
X135035296Y-107303137D01*
X135023565Y-107264466D01*
X135019000Y-107218112D01*
X135019000Y-106141888D01*
X135023565Y-106095534D01*
X135035296Y-106056863D01*
X135054348Y-106021221D01*
X135079983Y-105989983D01*
X135111221Y-105964348D01*
X135146863Y-105945296D01*
X135185534Y-105933565D01*
X135231888Y-105929000D01*
X135883112Y-105929000D01*
X135929466Y-105933565D01*
X135929466Y-105933565D01*
G37*
G36*
X134054466Y-105933565D02*
X134093137Y-105945296D01*
X134128779Y-105964348D01*
X134160017Y-105989983D01*
X134185652Y-106021221D01*
X134204704Y-106056863D01*
X134216435Y-106095534D01*
X134221000Y-106141888D01*
X134221000Y-107218112D01*
X134216435Y-107264466D01*
X134204704Y-107303137D01*
X134185652Y-107338779D01*
X134160017Y-107370017D01*
X134128779Y-107395652D01*
X134093137Y-107414704D01*
X134054466Y-107426435D01*
X134008112Y-107431000D01*
X133356888Y-107431000D01*
X133310534Y-107426435D01*
X133271863Y-107414704D01*
X133236221Y-107395652D01*
X133204983Y-107370017D01*
X133179348Y-107338779D01*
X133160296Y-107303137D01*
X133148565Y-107264466D01*
X133144000Y-107218112D01*
X133144000Y-106141888D01*
X133148565Y-106095534D01*
X133160296Y-106056863D01*
X133179348Y-106021221D01*
X133204983Y-105989983D01*
X133236221Y-105964348D01*
X133271863Y-105945296D01*
X133310534Y-105933565D01*
X133356888Y-105929000D01*
X134008112Y-105929000D01*
X134054466Y-105933565D01*
X134054466Y-105933565D01*
G37*
G36*
X164471000Y-107426000D02*
X162869000Y-107426000D01*
X162869000Y-106624000D01*
X164471000Y-106624000D01*
X164471000Y-107426000D01*
X164471000Y-107426000D01*
G37*
G36*
X130124466Y-105813565D02*
X130163137Y-105825296D01*
X130198779Y-105844348D01*
X130230017Y-105869983D01*
X130255652Y-105901221D01*
X130274704Y-105936863D01*
X130286435Y-105975534D01*
X130291000Y-106021888D01*
X130291000Y-106673112D01*
X130286435Y-106719466D01*
X130274704Y-106758137D01*
X130255652Y-106793779D01*
X130230017Y-106825017D01*
X130198779Y-106850652D01*
X130163137Y-106869704D01*
X130124466Y-106881435D01*
X130078112Y-106886000D01*
X129001888Y-106886000D01*
X128955534Y-106881435D01*
X128916863Y-106869704D01*
X128881221Y-106850652D01*
X128849983Y-106825017D01*
X128824348Y-106793779D01*
X128805296Y-106758137D01*
X128793565Y-106719466D01*
X128789000Y-106673112D01*
X128789000Y-106021888D01*
X128793565Y-105975534D01*
X128805296Y-105936863D01*
X128824348Y-105901221D01*
X128849983Y-105869983D01*
X128881221Y-105844348D01*
X128916863Y-105825296D01*
X128955534Y-105813565D01*
X129001888Y-105809000D01*
X130078112Y-105809000D01*
X130124466Y-105813565D01*
X130124466Y-105813565D01*
G37*
G36*
X165576136Y-105793253D02*
X165667312Y-105831019D01*
X165749372Y-105885850D01*
X165819150Y-105955628D01*
X165873981Y-106037688D01*
X165911747Y-106128864D01*
X165931000Y-106225656D01*
X165931000Y-106324344D01*
X165911747Y-106421136D01*
X165873981Y-106512312D01*
X165819150Y-106594372D01*
X165749372Y-106664150D01*
X165667312Y-106718981D01*
X165576136Y-106756747D01*
X165479344Y-106776000D01*
X165380656Y-106776000D01*
X165283864Y-106756747D01*
X165192688Y-106718981D01*
X165110628Y-106664150D01*
X165040850Y-106594372D01*
X164986019Y-106512312D01*
X164948253Y-106421136D01*
X164929000Y-106324344D01*
X164929000Y-106225656D01*
X164948253Y-106128864D01*
X164986019Y-106037688D01*
X165040850Y-105955628D01*
X165110628Y-105885850D01*
X165192688Y-105831019D01*
X165283864Y-105793253D01*
X165380656Y-105774000D01*
X165479344Y-105774000D01*
X165576136Y-105793253D01*
X165576136Y-105793253D01*
G37*
G36*
X139649466Y-104543565D02*
X139688137Y-104555296D01*
X139723779Y-104574348D01*
X139755017Y-104599983D01*
X139780652Y-104631221D01*
X139799704Y-104666863D01*
X139811435Y-104705534D01*
X139816000Y-104751888D01*
X139816000Y-105403112D01*
X139811435Y-105449466D01*
X139799704Y-105488137D01*
X139780652Y-105523779D01*
X139755017Y-105555017D01*
X139723779Y-105580652D01*
X139688137Y-105599704D01*
X139649466Y-105611435D01*
X139603112Y-105616000D01*
X138526888Y-105616000D01*
X138480534Y-105611435D01*
X138441863Y-105599704D01*
X138406221Y-105580652D01*
X138374983Y-105555017D01*
X138349348Y-105523779D01*
X138330296Y-105488137D01*
X138318565Y-105449466D01*
X138314000Y-105403112D01*
X138314000Y-104751888D01*
X138318565Y-104705534D01*
X138330296Y-104666863D01*
X138349348Y-104631221D01*
X138374983Y-104599983D01*
X138406221Y-104574348D01*
X138441863Y-104555296D01*
X138480534Y-104543565D01*
X138526888Y-104539000D01*
X139603112Y-104539000D01*
X139649466Y-104543565D01*
X139649466Y-104543565D01*
G37*
G36*
X141741000Y-105541000D02*
X140739000Y-105541000D01*
X140739000Y-104639000D01*
X141741000Y-104639000D01*
X141741000Y-105541000D01*
X141741000Y-105541000D01*
G37*
G36*
X145551000Y-105541000D02*
X144549000Y-105541000D01*
X144549000Y-104639000D01*
X145551000Y-104639000D01*
X145551000Y-105541000D01*
X145551000Y-105541000D01*
G37*
G36*
X152320102Y-103661479D02*
X152358773Y-103673210D01*
X152394415Y-103692262D01*
X152425653Y-103717897D01*
X152451288Y-103749135D01*
X152470340Y-103784777D01*
X152482071Y-103823448D01*
X152486636Y-103869802D01*
X152486636Y-104946026D01*
X152482071Y-104992380D01*
X152470340Y-105031051D01*
X152451288Y-105066693D01*
X152425653Y-105097931D01*
X152394415Y-105123566D01*
X152358773Y-105142618D01*
X152320102Y-105154349D01*
X152273748Y-105158914D01*
X151622524Y-105158914D01*
X151576170Y-105154349D01*
X151537499Y-105142618D01*
X151501857Y-105123566D01*
X151470619Y-105097931D01*
X151444984Y-105066693D01*
X151425932Y-105031051D01*
X151414201Y-104992380D01*
X151409636Y-104946026D01*
X151409636Y-103869802D01*
X151414201Y-103823448D01*
X151425932Y-103784777D01*
X151444984Y-103749135D01*
X151470619Y-103717897D01*
X151501857Y-103692262D01*
X151537499Y-103673210D01*
X151576170Y-103661479D01*
X151622524Y-103656914D01*
X152273748Y-103656914D01*
X152320102Y-103661479D01*
X152320102Y-103661479D01*
G37*
G36*
X154195102Y-103661479D02*
X154233773Y-103673210D01*
X154269415Y-103692262D01*
X154300653Y-103717897D01*
X154326288Y-103749135D01*
X154345340Y-103784777D01*
X154357071Y-103823448D01*
X154361636Y-103869802D01*
X154361636Y-104946026D01*
X154357071Y-104992380D01*
X154345340Y-105031051D01*
X154326288Y-105066693D01*
X154300653Y-105097931D01*
X154269415Y-105123566D01*
X154233773Y-105142618D01*
X154195102Y-105154349D01*
X154148748Y-105158914D01*
X153497524Y-105158914D01*
X153451170Y-105154349D01*
X153412499Y-105142618D01*
X153376857Y-105123566D01*
X153345619Y-105097931D01*
X153319984Y-105066693D01*
X153300932Y-105031051D01*
X153289201Y-104992380D01*
X153284636Y-104946026D01*
X153284636Y-103869802D01*
X153289201Y-103823448D01*
X153300932Y-103784777D01*
X153319984Y-103749135D01*
X153345619Y-103717897D01*
X153376857Y-103692262D01*
X153412499Y-103673210D01*
X153451170Y-103661479D01*
X153497524Y-103656914D01*
X154148748Y-103656914D01*
X154195102Y-103661479D01*
X154195102Y-103661479D01*
G37*
G36*
X157496000Y-105021000D02*
X156194000Y-105021000D01*
X156194000Y-104019000D01*
X157496000Y-104019000D01*
X157496000Y-105021000D01*
X157496000Y-105021000D01*
G37*
G36*
X130124466Y-103938565D02*
X130163137Y-103950296D01*
X130198779Y-103969348D01*
X130230017Y-103994983D01*
X130255652Y-104026221D01*
X130274704Y-104061863D01*
X130286435Y-104100534D01*
X130291000Y-104146888D01*
X130291000Y-104798112D01*
X130286435Y-104844466D01*
X130274704Y-104883137D01*
X130255652Y-104918779D01*
X130230017Y-104950017D01*
X130198779Y-104975652D01*
X130163137Y-104994704D01*
X130124466Y-105006435D01*
X130078112Y-105011000D01*
X129001888Y-105011000D01*
X128955534Y-105006435D01*
X128916863Y-104994704D01*
X128881221Y-104975652D01*
X128849983Y-104950017D01*
X128824348Y-104918779D01*
X128805296Y-104883137D01*
X128793565Y-104844466D01*
X128789000Y-104798112D01*
X128789000Y-104146888D01*
X128793565Y-104100534D01*
X128805296Y-104061863D01*
X128824348Y-104026221D01*
X128849983Y-103994983D01*
X128881221Y-103969348D01*
X128916863Y-103950296D01*
X128955534Y-103938565D01*
X129001888Y-103934000D01*
X130078112Y-103934000D01*
X130124466Y-103938565D01*
X130124466Y-103938565D01*
G37*
G36*
X135929466Y-103393565D02*
X135968137Y-103405296D01*
X136003779Y-103424348D01*
X136035017Y-103449983D01*
X136060652Y-103481221D01*
X136079704Y-103516863D01*
X136091435Y-103555534D01*
X136096000Y-103601888D01*
X136096000Y-104678112D01*
X136091435Y-104724466D01*
X136079704Y-104763137D01*
X136060652Y-104798779D01*
X136035017Y-104830017D01*
X136003779Y-104855652D01*
X135968137Y-104874704D01*
X135929466Y-104886435D01*
X135883112Y-104891000D01*
X135231888Y-104891000D01*
X135185534Y-104886435D01*
X135146863Y-104874704D01*
X135111221Y-104855652D01*
X135079983Y-104830017D01*
X135054348Y-104798779D01*
X135035296Y-104763137D01*
X135023565Y-104724466D01*
X135019000Y-104678112D01*
X135019000Y-103601888D01*
X135023565Y-103555534D01*
X135035296Y-103516863D01*
X135054348Y-103481221D01*
X135079983Y-103449983D01*
X135111221Y-103424348D01*
X135146863Y-103405296D01*
X135185534Y-103393565D01*
X135231888Y-103389000D01*
X135883112Y-103389000D01*
X135929466Y-103393565D01*
X135929466Y-103393565D01*
G37*
G36*
X134054466Y-103393565D02*
X134093137Y-103405296D01*
X134128779Y-103424348D01*
X134160017Y-103449983D01*
X134185652Y-103481221D01*
X134204704Y-103516863D01*
X134216435Y-103555534D01*
X134221000Y-103601888D01*
X134221000Y-104678112D01*
X134216435Y-104724466D01*
X134204704Y-104763137D01*
X134185652Y-104798779D01*
X134160017Y-104830017D01*
X134128779Y-104855652D01*
X134093137Y-104874704D01*
X134054466Y-104886435D01*
X134008112Y-104891000D01*
X133356888Y-104891000D01*
X133310534Y-104886435D01*
X133271863Y-104874704D01*
X133236221Y-104855652D01*
X133204983Y-104830017D01*
X133179348Y-104798779D01*
X133160296Y-104763137D01*
X133148565Y-104724466D01*
X133144000Y-104678112D01*
X133144000Y-103601888D01*
X133148565Y-103555534D01*
X133160296Y-103516863D01*
X133179348Y-103481221D01*
X133204983Y-103449983D01*
X133236221Y-103424348D01*
X133271863Y-103405296D01*
X133310534Y-103393565D01*
X133356888Y-103389000D01*
X134008112Y-103389000D01*
X134054466Y-103393565D01*
X134054466Y-103393565D01*
G37*
G36*
X147551000Y-104591000D02*
X146549000Y-104591000D01*
X146549000Y-103689000D01*
X147551000Y-103689000D01*
X147551000Y-104591000D01*
X147551000Y-104591000D01*
G37*
G36*
X143741000Y-104591000D02*
X142739000Y-104591000D01*
X142739000Y-103689000D01*
X143741000Y-103689000D01*
X143741000Y-104591000D01*
X143741000Y-104591000D01*
G37*
G36*
X161346000Y-104551000D02*
X158694000Y-104551000D01*
X158694000Y-103389000D01*
X161346000Y-103389000D01*
X161346000Y-104551000D01*
X161346000Y-104551000D01*
G37*
G36*
X164471000Y-104426000D02*
X162869000Y-104426000D01*
X162869000Y-103624000D01*
X164471000Y-103624000D01*
X164471000Y-104426000D01*
X164471000Y-104426000D01*
G37*
G36*
X165576136Y-102793253D02*
X165667312Y-102831019D01*
X165749372Y-102885850D01*
X165819150Y-102955628D01*
X165873981Y-103037688D01*
X165911747Y-103128864D01*
X165931000Y-103225656D01*
X165931000Y-103324344D01*
X165911747Y-103421136D01*
X165873981Y-103512312D01*
X165819150Y-103594372D01*
X165749372Y-103664150D01*
X165667312Y-103718981D01*
X165576136Y-103756747D01*
X165479344Y-103776000D01*
X165380656Y-103776000D01*
X165283864Y-103756747D01*
X165192688Y-103718981D01*
X165110628Y-103664150D01*
X165040850Y-103594372D01*
X164986019Y-103512312D01*
X164948253Y-103421136D01*
X164929000Y-103324344D01*
X164929000Y-103225656D01*
X164948253Y-103128864D01*
X164986019Y-103037688D01*
X165040850Y-102955628D01*
X165110628Y-102885850D01*
X165192688Y-102831019D01*
X165283864Y-102793253D01*
X165380656Y-102774000D01*
X165479344Y-102774000D01*
X165576136Y-102793253D01*
X165576136Y-102793253D01*
G37*
G36*
X139649466Y-102668565D02*
X139688137Y-102680296D01*
X139723779Y-102699348D01*
X139755017Y-102724983D01*
X139780652Y-102756221D01*
X139799704Y-102791863D01*
X139811435Y-102830534D01*
X139816000Y-102876888D01*
X139816000Y-103528112D01*
X139811435Y-103574466D01*
X139799704Y-103613137D01*
X139780652Y-103648779D01*
X139755017Y-103680017D01*
X139723779Y-103705652D01*
X139688137Y-103724704D01*
X139649466Y-103736435D01*
X139603112Y-103741000D01*
X138526888Y-103741000D01*
X138480534Y-103736435D01*
X138441863Y-103724704D01*
X138406221Y-103705652D01*
X138374983Y-103680017D01*
X138349348Y-103648779D01*
X138330296Y-103613137D01*
X138318565Y-103574466D01*
X138314000Y-103528112D01*
X138314000Y-102876888D01*
X138318565Y-102830534D01*
X138330296Y-102791863D01*
X138349348Y-102756221D01*
X138374983Y-102724983D01*
X138406221Y-102699348D01*
X138441863Y-102680296D01*
X138480534Y-102668565D01*
X138526888Y-102664000D01*
X139603112Y-102664000D01*
X139649466Y-102668565D01*
X139649466Y-102668565D01*
G37*
G36*
X145551000Y-103641000D02*
X144549000Y-103641000D01*
X144549000Y-102739000D01*
X145551000Y-102739000D01*
X145551000Y-103641000D01*
X145551000Y-103641000D01*
G37*
G36*
X141741000Y-103641000D02*
X140739000Y-103641000D01*
X140739000Y-102739000D01*
X141741000Y-102739000D01*
X141741000Y-103641000D01*
X141741000Y-103641000D01*
G37*
G36*
X152320102Y-101756479D02*
X152358773Y-101768210D01*
X152394415Y-101787262D01*
X152425653Y-101812897D01*
X152451288Y-101844135D01*
X152470340Y-101879777D01*
X152482071Y-101918448D01*
X152486636Y-101964802D01*
X152486636Y-103041026D01*
X152482071Y-103087380D01*
X152470340Y-103126051D01*
X152451288Y-103161693D01*
X152425653Y-103192931D01*
X152394415Y-103218566D01*
X152358773Y-103237618D01*
X152320102Y-103249349D01*
X152273748Y-103253914D01*
X151622524Y-103253914D01*
X151576170Y-103249349D01*
X151537499Y-103237618D01*
X151501857Y-103218566D01*
X151470619Y-103192931D01*
X151444984Y-103161693D01*
X151425932Y-103126051D01*
X151414201Y-103087380D01*
X151409636Y-103041026D01*
X151409636Y-101964802D01*
X151414201Y-101918448D01*
X151425932Y-101879777D01*
X151444984Y-101844135D01*
X151470619Y-101812897D01*
X151501857Y-101787262D01*
X151537499Y-101768210D01*
X151576170Y-101756479D01*
X151622524Y-101751914D01*
X152273748Y-101751914D01*
X152320102Y-101756479D01*
X152320102Y-101756479D01*
G37*
G36*
X154195102Y-101756479D02*
X154233773Y-101768210D01*
X154269415Y-101787262D01*
X154300653Y-101812897D01*
X154326288Y-101844135D01*
X154345340Y-101879777D01*
X154357071Y-101918448D01*
X154361636Y-101964802D01*
X154361636Y-103041026D01*
X154357071Y-103087380D01*
X154345340Y-103126051D01*
X154326288Y-103161693D01*
X154300653Y-103192931D01*
X154269415Y-103218566D01*
X154233773Y-103237618D01*
X154195102Y-103249349D01*
X154148748Y-103253914D01*
X153497524Y-103253914D01*
X153451170Y-103249349D01*
X153412499Y-103237618D01*
X153376857Y-103218566D01*
X153345619Y-103192931D01*
X153319984Y-103161693D01*
X153300932Y-103126051D01*
X153289201Y-103087380D01*
X153284636Y-103041026D01*
X153284636Y-101964802D01*
X153289201Y-101918448D01*
X153300932Y-101879777D01*
X153319984Y-101844135D01*
X153345619Y-101812897D01*
X153376857Y-101787262D01*
X153412499Y-101768210D01*
X153451170Y-101756479D01*
X153497524Y-101751914D01*
X154148748Y-101751914D01*
X154195102Y-101756479D01*
X154195102Y-101756479D01*
G37*
G36*
X130124466Y-102003565D02*
X130163137Y-102015296D01*
X130198779Y-102034348D01*
X130230017Y-102059983D01*
X130255652Y-102091221D01*
X130274704Y-102126863D01*
X130286435Y-102165534D01*
X130291000Y-102211888D01*
X130291000Y-102863112D01*
X130286435Y-102909466D01*
X130274704Y-102948137D01*
X130255652Y-102983779D01*
X130230017Y-103015017D01*
X130198779Y-103040652D01*
X130163137Y-103059704D01*
X130124466Y-103071435D01*
X130078112Y-103076000D01*
X129001888Y-103076000D01*
X128955534Y-103071435D01*
X128916863Y-103059704D01*
X128881221Y-103040652D01*
X128849983Y-103015017D01*
X128824348Y-102983779D01*
X128805296Y-102948137D01*
X128793565Y-102909466D01*
X128789000Y-102863112D01*
X128789000Y-102211888D01*
X128793565Y-102165534D01*
X128805296Y-102126863D01*
X128824348Y-102091221D01*
X128849983Y-102059983D01*
X128881221Y-102034348D01*
X128916863Y-102015296D01*
X128955534Y-102003565D01*
X129001888Y-101999000D01*
X130078112Y-101999000D01*
X130124466Y-102003565D01*
X130124466Y-102003565D01*
G37*
G36*
X164471000Y-102926000D02*
X162869000Y-102926000D01*
X162869000Y-102124000D01*
X164471000Y-102124000D01*
X164471000Y-102926000D01*
X164471000Y-102926000D01*
G37*
G36*
X134054466Y-100853565D02*
X134093137Y-100865296D01*
X134128779Y-100884348D01*
X134160017Y-100909983D01*
X134185652Y-100941221D01*
X134204704Y-100976863D01*
X134216435Y-101015534D01*
X134221000Y-101061888D01*
X134221000Y-102138112D01*
X134216435Y-102184466D01*
X134204704Y-102223137D01*
X134185652Y-102258779D01*
X134160017Y-102290017D01*
X134128779Y-102315652D01*
X134093137Y-102334704D01*
X134054466Y-102346435D01*
X134008112Y-102351000D01*
X133356888Y-102351000D01*
X133310534Y-102346435D01*
X133271863Y-102334704D01*
X133236221Y-102315652D01*
X133204983Y-102290017D01*
X133179348Y-102258779D01*
X133160296Y-102223137D01*
X133148565Y-102184466D01*
X133144000Y-102138112D01*
X133144000Y-101061888D01*
X133148565Y-101015534D01*
X133160296Y-100976863D01*
X133179348Y-100941221D01*
X133204983Y-100909983D01*
X133236221Y-100884348D01*
X133271863Y-100865296D01*
X133310534Y-100853565D01*
X133356888Y-100849000D01*
X134008112Y-100849000D01*
X134054466Y-100853565D01*
X134054466Y-100853565D01*
G37*
G36*
X135929466Y-100853565D02*
X135968137Y-100865296D01*
X136003779Y-100884348D01*
X136035017Y-100909983D01*
X136060652Y-100941221D01*
X136079704Y-100976863D01*
X136091435Y-101015534D01*
X136096000Y-101061888D01*
X136096000Y-102138112D01*
X136091435Y-102184466D01*
X136079704Y-102223137D01*
X136060652Y-102258779D01*
X136035017Y-102290017D01*
X136003779Y-102315652D01*
X135968137Y-102334704D01*
X135929466Y-102346435D01*
X135883112Y-102351000D01*
X135231888Y-102351000D01*
X135185534Y-102346435D01*
X135146863Y-102334704D01*
X135111221Y-102315652D01*
X135079983Y-102290017D01*
X135054348Y-102258779D01*
X135035296Y-102223137D01*
X135023565Y-102184466D01*
X135019000Y-102138112D01*
X135019000Y-101061888D01*
X135023565Y-101015534D01*
X135035296Y-100976863D01*
X135054348Y-100941221D01*
X135079983Y-100909983D01*
X135111221Y-100884348D01*
X135146863Y-100865296D01*
X135185534Y-100853565D01*
X135231888Y-100849000D01*
X135883112Y-100849000D01*
X135929466Y-100853565D01*
X135929466Y-100853565D01*
G37*
G36*
X159446000Y-102351000D02*
X158694000Y-102351000D01*
X158694000Y-101189000D01*
X159446000Y-101189000D01*
X159446000Y-102351000D01*
X159446000Y-102351000D01*
G37*
G36*
X161346000Y-102351000D02*
X160594000Y-102351000D01*
X160594000Y-101189000D01*
X161346000Y-101189000D01*
X161346000Y-102351000D01*
X161346000Y-102351000D01*
G37*
G36*
X157496000Y-101721000D02*
X156194000Y-101721000D01*
X156194000Y-100719000D01*
X157496000Y-100719000D01*
X157496000Y-101721000D01*
X157496000Y-101721000D01*
G37*
G36*
X166981000Y-101676000D02*
X166079000Y-101676000D01*
X166079000Y-100574000D01*
X166981000Y-100574000D01*
X166981000Y-101676000D01*
X166981000Y-101676000D01*
G37*
G36*
X164771000Y-101676000D02*
X163869000Y-101676000D01*
X163869000Y-100574000D01*
X164771000Y-100574000D01*
X164771000Y-101676000D01*
X164771000Y-101676000D01*
G37*
G36*
X152320102Y-99851479D02*
X152358773Y-99863210D01*
X152394415Y-99882262D01*
X152425653Y-99907897D01*
X152451288Y-99939135D01*
X152470340Y-99974777D01*
X152482071Y-100013448D01*
X152486636Y-100059802D01*
X152486636Y-101136026D01*
X152482071Y-101182380D01*
X152470340Y-101221051D01*
X152451288Y-101256693D01*
X152425653Y-101287931D01*
X152394415Y-101313566D01*
X152358773Y-101332618D01*
X152320102Y-101344349D01*
X152273748Y-101348914D01*
X151622524Y-101348914D01*
X151576170Y-101344349D01*
X151537499Y-101332618D01*
X151501857Y-101313566D01*
X151470619Y-101287931D01*
X151444984Y-101256693D01*
X151425932Y-101221051D01*
X151414201Y-101182380D01*
X151409636Y-101136026D01*
X151409636Y-100059802D01*
X151414201Y-100013448D01*
X151425932Y-99974777D01*
X151444984Y-99939135D01*
X151470619Y-99907897D01*
X151501857Y-99882262D01*
X151537499Y-99863210D01*
X151576170Y-99851479D01*
X151622524Y-99846914D01*
X152273748Y-99846914D01*
X152320102Y-99851479D01*
X152320102Y-99851479D01*
G37*
G36*
X154195102Y-99851479D02*
X154233773Y-99863210D01*
X154269415Y-99882262D01*
X154300653Y-99907897D01*
X154326288Y-99939135D01*
X154345340Y-99974777D01*
X154357071Y-100013448D01*
X154361636Y-100059802D01*
X154361636Y-101136026D01*
X154357071Y-101182380D01*
X154345340Y-101221051D01*
X154326288Y-101256693D01*
X154300653Y-101287931D01*
X154269415Y-101313566D01*
X154233773Y-101332618D01*
X154195102Y-101344349D01*
X154148748Y-101348914D01*
X153497524Y-101348914D01*
X153451170Y-101344349D01*
X153412499Y-101332618D01*
X153376857Y-101313566D01*
X153345619Y-101287931D01*
X153319984Y-101256693D01*
X153300932Y-101221051D01*
X153289201Y-101182380D01*
X153284636Y-101136026D01*
X153284636Y-100059802D01*
X153289201Y-100013448D01*
X153300932Y-99974777D01*
X153319984Y-99939135D01*
X153345619Y-99907897D01*
X153376857Y-99882262D01*
X153412499Y-99863210D01*
X153451170Y-99851479D01*
X153497524Y-99846914D01*
X154148748Y-99846914D01*
X154195102Y-99851479D01*
X154195102Y-99851479D01*
G37*
G36*
X130124466Y-100128565D02*
X130163137Y-100140296D01*
X130198779Y-100159348D01*
X130230017Y-100184983D01*
X130255652Y-100216221D01*
X130274704Y-100251863D01*
X130286435Y-100290534D01*
X130291000Y-100336888D01*
X130291000Y-100988112D01*
X130286435Y-101034466D01*
X130274704Y-101073137D01*
X130255652Y-101108779D01*
X130230017Y-101140017D01*
X130198779Y-101165652D01*
X130163137Y-101184704D01*
X130124466Y-101196435D01*
X130078112Y-101201000D01*
X129001888Y-101201000D01*
X128955534Y-101196435D01*
X128916863Y-101184704D01*
X128881221Y-101165652D01*
X128849983Y-101140017D01*
X128824348Y-101108779D01*
X128805296Y-101073137D01*
X128793565Y-101034466D01*
X128789000Y-100988112D01*
X128789000Y-100336888D01*
X128793565Y-100290534D01*
X128805296Y-100251863D01*
X128824348Y-100216221D01*
X128849983Y-100184983D01*
X128881221Y-100159348D01*
X128916863Y-100140296D01*
X128955534Y-100128565D01*
X129001888Y-100124000D01*
X130078112Y-100124000D01*
X130124466Y-100128565D01*
X130124466Y-100128565D01*
G37*
G36*
X162692004Y-99590544D02*
X162779059Y-99607860D01*
X162915732Y-99664472D01*
X162915733Y-99664473D01*
X163038738Y-99746662D01*
X163143338Y-99851262D01*
X163143340Y-99851265D01*
X163225528Y-99974268D01*
X163282140Y-100110941D01*
X163311000Y-100256033D01*
X163311000Y-100403967D01*
X163282140Y-100549059D01*
X163225528Y-100685732D01*
X163225527Y-100685733D01*
X163143338Y-100808738D01*
X163038738Y-100913338D01*
X163038735Y-100913340D01*
X162915732Y-100995528D01*
X162779059Y-101052140D01*
X162710776Y-101065722D01*
X162633969Y-101081000D01*
X162486031Y-101081000D01*
X162409224Y-101065722D01*
X162340941Y-101052140D01*
X162204268Y-100995528D01*
X162081265Y-100913340D01*
X162081262Y-100913338D01*
X161976662Y-100808738D01*
X161894473Y-100685733D01*
X161894472Y-100685732D01*
X161837860Y-100549059D01*
X161809000Y-100403967D01*
X161809000Y-100256033D01*
X161837860Y-100110941D01*
X161894472Y-99974268D01*
X161976660Y-99851265D01*
X161976662Y-99851262D01*
X162081262Y-99746662D01*
X162204267Y-99664473D01*
X162204268Y-99664472D01*
X162340941Y-99607860D01*
X162427996Y-99590544D01*
X162486031Y-99579000D01*
X162633969Y-99579000D01*
X162692004Y-99590544D01*
X162692004Y-99590544D01*
G37*
G36*
X145196000Y-100841000D02*
X143094000Y-100841000D01*
X143094000Y-98739000D01*
X145196000Y-98739000D01*
X145196000Y-100841000D01*
X145196000Y-100841000D01*
G37*
G36*
X152320102Y-97946479D02*
X152358773Y-97958210D01*
X152394415Y-97977262D01*
X152425653Y-98002897D01*
X152451288Y-98034135D01*
X152470340Y-98069777D01*
X152482071Y-98108448D01*
X152486636Y-98154802D01*
X152486636Y-99231026D01*
X152482071Y-99277380D01*
X152470340Y-99316051D01*
X152451288Y-99351693D01*
X152425653Y-99382931D01*
X152394415Y-99408566D01*
X152358773Y-99427618D01*
X152320102Y-99439349D01*
X152273748Y-99443914D01*
X151622524Y-99443914D01*
X151576170Y-99439349D01*
X151537499Y-99427618D01*
X151501857Y-99408566D01*
X151470619Y-99382931D01*
X151444984Y-99351693D01*
X151425932Y-99316051D01*
X151414201Y-99277380D01*
X151409636Y-99231026D01*
X151409636Y-98154802D01*
X151414201Y-98108448D01*
X151425932Y-98069777D01*
X151444984Y-98034135D01*
X151470619Y-98002897D01*
X151501857Y-97977262D01*
X151537499Y-97958210D01*
X151576170Y-97946479D01*
X151622524Y-97941914D01*
X152273748Y-97941914D01*
X152320102Y-97946479D01*
X152320102Y-97946479D01*
G37*
G36*
X154195102Y-97946479D02*
X154233773Y-97958210D01*
X154269415Y-97977262D01*
X154300653Y-98002897D01*
X154326288Y-98034135D01*
X154345340Y-98069777D01*
X154357071Y-98108448D01*
X154361636Y-98154802D01*
X154361636Y-99231026D01*
X154357071Y-99277380D01*
X154345340Y-99316051D01*
X154326288Y-99351693D01*
X154300653Y-99382931D01*
X154269415Y-99408566D01*
X154233773Y-99427618D01*
X154195102Y-99439349D01*
X154148748Y-99443914D01*
X153497524Y-99443914D01*
X153451170Y-99439349D01*
X153412499Y-99427618D01*
X153376857Y-99408566D01*
X153345619Y-99382931D01*
X153319984Y-99351693D01*
X153300932Y-99316051D01*
X153289201Y-99277380D01*
X153284636Y-99231026D01*
X153284636Y-98154802D01*
X153289201Y-98108448D01*
X153300932Y-98069777D01*
X153319984Y-98034135D01*
X153345619Y-98002897D01*
X153376857Y-97977262D01*
X153412499Y-97958210D01*
X153451170Y-97946479D01*
X153497524Y-97941914D01*
X154148748Y-97941914D01*
X154195102Y-97946479D01*
X154195102Y-97946479D01*
G37*
G36*
X165845442Y-97530518D02*
X165911627Y-97537037D01*
X166023394Y-97570941D01*
X166081467Y-97588557D01*
X166220087Y-97662652D01*
X166237991Y-97672222D01*
X166273729Y-97701552D01*
X166375186Y-97784814D01*
X166458448Y-97886271D01*
X166487778Y-97922009D01*
X166487779Y-97922011D01*
X166571443Y-98078533D01*
X166571443Y-98078534D01*
X166622963Y-98248373D01*
X166640359Y-98425000D01*
X166622963Y-98601627D01*
X166612070Y-98637535D01*
X166571443Y-98771467D01*
X166497348Y-98910087D01*
X166487778Y-98927991D01*
X166458448Y-98963729D01*
X166375186Y-99065186D01*
X166273729Y-99148448D01*
X166237991Y-99177778D01*
X166237989Y-99177779D01*
X166081467Y-99261443D01*
X166028929Y-99277380D01*
X165911627Y-99312963D01*
X165845442Y-99319482D01*
X165779260Y-99326000D01*
X165690740Y-99326000D01*
X165624557Y-99319481D01*
X165558373Y-99312963D01*
X165441071Y-99277380D01*
X165388533Y-99261443D01*
X165232011Y-99177779D01*
X165232009Y-99177778D01*
X165196271Y-99148448D01*
X165094814Y-99065186D01*
X165011552Y-98963729D01*
X164982222Y-98927991D01*
X164972652Y-98910087D01*
X164898557Y-98771467D01*
X164857930Y-98637535D01*
X164847037Y-98601627D01*
X164829641Y-98425000D01*
X164847037Y-98248373D01*
X164898557Y-98078534D01*
X164898557Y-98078533D01*
X164982221Y-97922011D01*
X164982222Y-97922009D01*
X165011552Y-97886271D01*
X165094814Y-97784814D01*
X165196271Y-97701552D01*
X165232009Y-97672222D01*
X165249913Y-97662652D01*
X165388533Y-97588557D01*
X165446606Y-97570941D01*
X165558373Y-97537037D01*
X165624558Y-97530518D01*
X165690740Y-97524000D01*
X165779260Y-97524000D01*
X165845442Y-97530518D01*
X165845442Y-97530518D01*
G37*
G36*
X157240562Y-96868181D02*
X157275477Y-96878773D01*
X157307665Y-96895978D01*
X157335873Y-96919127D01*
X157359022Y-96947335D01*
X157376227Y-96979523D01*
X157386819Y-97014438D01*
X157391000Y-97056895D01*
X157391000Y-98523105D01*
X157386819Y-98565562D01*
X157376227Y-98600477D01*
X157359022Y-98632665D01*
X157335873Y-98660873D01*
X157307665Y-98684022D01*
X157275477Y-98701227D01*
X157240562Y-98711819D01*
X157198105Y-98716000D01*
X156056895Y-98716000D01*
X156014438Y-98711819D01*
X155979523Y-98701227D01*
X155947335Y-98684022D01*
X155919127Y-98660873D01*
X155895978Y-98632665D01*
X155878773Y-98600477D01*
X155868181Y-98565562D01*
X155864000Y-98523105D01*
X155864000Y-97056895D01*
X155868181Y-97014438D01*
X155878773Y-96979523D01*
X155895978Y-96947335D01*
X155919127Y-96919127D01*
X155947335Y-96895978D01*
X155979523Y-96878773D01*
X156014438Y-96868181D01*
X156056895Y-96864000D01*
X157198105Y-96864000D01*
X157240562Y-96868181D01*
X157240562Y-96868181D01*
G37*
G36*
X160215562Y-96868181D02*
X160250477Y-96878773D01*
X160282665Y-96895978D01*
X160310873Y-96919127D01*
X160334022Y-96947335D01*
X160351227Y-96979523D01*
X160361819Y-97014438D01*
X160366000Y-97056895D01*
X160366000Y-98523105D01*
X160361819Y-98565562D01*
X160351227Y-98600477D01*
X160334022Y-98632665D01*
X160310873Y-98660873D01*
X160282665Y-98684022D01*
X160250477Y-98701227D01*
X160215562Y-98711819D01*
X160173105Y-98716000D01*
X159031895Y-98716000D01*
X158989438Y-98711819D01*
X158954523Y-98701227D01*
X158922335Y-98684022D01*
X158894127Y-98660873D01*
X158870978Y-98632665D01*
X158853773Y-98600477D01*
X158843181Y-98565562D01*
X158839000Y-98523105D01*
X158839000Y-97056895D01*
X158843181Y-97014438D01*
X158853773Y-96979523D01*
X158870978Y-96947335D01*
X158894127Y-96919127D01*
X158922335Y-96895978D01*
X158954523Y-96878773D01*
X158989438Y-96868181D01*
X159031895Y-96864000D01*
X160173105Y-96864000D01*
X160215562Y-96868181D01*
X160215562Y-96868181D01*
G37*
G36*
X162692004Y-97050544D02*
X162779059Y-97067860D01*
X162915732Y-97124472D01*
X162915733Y-97124473D01*
X163038738Y-97206662D01*
X163143338Y-97311262D01*
X163143340Y-97311265D01*
X163225528Y-97434268D01*
X163282140Y-97570941D01*
X163299456Y-97657996D01*
X163302286Y-97672221D01*
X163311000Y-97716033D01*
X163311000Y-97863967D01*
X163282140Y-98009059D01*
X163225528Y-98145732D01*
X163216906Y-98158636D01*
X163143338Y-98268738D01*
X163038738Y-98373338D01*
X163038735Y-98373340D01*
X162915732Y-98455528D01*
X162779059Y-98512140D01*
X162692004Y-98529456D01*
X162633969Y-98541000D01*
X162486031Y-98541000D01*
X162427996Y-98529456D01*
X162340941Y-98512140D01*
X162204268Y-98455528D01*
X162081265Y-98373340D01*
X162081262Y-98373338D01*
X161976662Y-98268738D01*
X161903094Y-98158636D01*
X161894472Y-98145732D01*
X161837860Y-98009059D01*
X161809000Y-97863967D01*
X161809000Y-97716033D01*
X161817715Y-97672221D01*
X161820544Y-97657996D01*
X161837860Y-97570941D01*
X161894472Y-97434268D01*
X161976660Y-97311265D01*
X161976662Y-97311262D01*
X162081262Y-97206662D01*
X162204267Y-97124473D01*
X162204268Y-97124472D01*
X162340941Y-97067860D01*
X162427996Y-97050544D01*
X162486031Y-97039000D01*
X162633969Y-97039000D01*
X162692004Y-97050544D01*
X162692004Y-97050544D01*
G37*
G36*
X154195102Y-96041479D02*
X154233773Y-96053210D01*
X154269415Y-96072262D01*
X154300653Y-96097897D01*
X154326288Y-96129135D01*
X154345340Y-96164777D01*
X154357071Y-96203448D01*
X154361636Y-96249802D01*
X154361636Y-97326026D01*
X154357071Y-97372380D01*
X154345340Y-97411051D01*
X154326288Y-97446693D01*
X154300653Y-97477931D01*
X154269415Y-97503566D01*
X154233773Y-97522618D01*
X154195102Y-97534349D01*
X154148748Y-97538914D01*
X153497524Y-97538914D01*
X153451170Y-97534349D01*
X153412499Y-97522618D01*
X153376857Y-97503566D01*
X153345619Y-97477931D01*
X153319984Y-97446693D01*
X153300932Y-97411051D01*
X153289201Y-97372380D01*
X153284636Y-97326026D01*
X153284636Y-96249802D01*
X153289201Y-96203448D01*
X153300932Y-96164777D01*
X153319984Y-96129135D01*
X153345619Y-96097897D01*
X153376857Y-96072262D01*
X153412499Y-96053210D01*
X153451170Y-96041479D01*
X153497524Y-96036914D01*
X154148748Y-96036914D01*
X154195102Y-96041479D01*
X154195102Y-96041479D01*
G37*
G36*
X152320102Y-96041479D02*
X152358773Y-96053210D01*
X152394415Y-96072262D01*
X152425653Y-96097897D01*
X152451288Y-96129135D01*
X152470340Y-96164777D01*
X152482071Y-96203448D01*
X152486636Y-96249802D01*
X152486636Y-97326026D01*
X152482071Y-97372380D01*
X152470340Y-97411051D01*
X152451288Y-97446693D01*
X152425653Y-97477931D01*
X152394415Y-97503566D01*
X152358773Y-97522618D01*
X152320102Y-97534349D01*
X152273748Y-97538914D01*
X151622524Y-97538914D01*
X151576170Y-97534349D01*
X151537499Y-97522618D01*
X151501857Y-97503566D01*
X151470619Y-97477931D01*
X151444984Y-97446693D01*
X151425932Y-97411051D01*
X151414201Y-97372380D01*
X151409636Y-97326026D01*
X151409636Y-96249802D01*
X151414201Y-96203448D01*
X151425932Y-96164777D01*
X151444984Y-96129135D01*
X151470619Y-96097897D01*
X151501857Y-96072262D01*
X151537499Y-96053210D01*
X151576170Y-96041479D01*
X151622524Y-96036914D01*
X152273748Y-96036914D01*
X152320102Y-96041479D01*
X152320102Y-96041479D01*
G37*
G36*
X145996000Y-96841000D02*
X144594000Y-96841000D01*
X144594000Y-94739000D01*
X145996000Y-94739000D01*
X145996000Y-96841000D01*
X145996000Y-96841000D01*
G37*
G36*
X143696000Y-96841000D02*
X142294000Y-96841000D01*
X142294000Y-94739000D01*
X143696000Y-94739000D01*
X143696000Y-96841000D01*
X143696000Y-96841000D01*
G37*
G36*
X166636000Y-96786000D02*
X164834000Y-96786000D01*
X164834000Y-94984000D01*
X166636000Y-94984000D01*
X166636000Y-96786000D01*
X166636000Y-96786000D01*
G37*
G36*
X151296000Y-88431000D02*
X149694000Y-88431000D01*
X149694000Y-86829000D01*
X151296000Y-86829000D01*
X151296000Y-88431000D01*
X151296000Y-88431000D01*
G37*
G36*
X148228643Y-86859781D02*
X148374415Y-86920162D01*
X148505611Y-87007824D01*
X148617176Y-87119389D01*
X148704838Y-87250585D01*
X148765219Y-87396357D01*
X148796000Y-87551107D01*
X148796000Y-87708893D01*
X148765219Y-87863643D01*
X148704838Y-88009415D01*
X148617176Y-88140611D01*
X148505611Y-88252176D01*
X148374415Y-88339838D01*
X148228643Y-88400219D01*
X148073893Y-88431000D01*
X147916107Y-88431000D01*
X147761357Y-88400219D01*
X147615585Y-88339838D01*
X147484389Y-88252176D01*
X147372824Y-88140611D01*
X147285162Y-88009415D01*
X147224781Y-87863643D01*
X147194000Y-87708893D01*
X147194000Y-87551107D01*
X147224781Y-87396357D01*
X147285162Y-87250585D01*
X147372824Y-87119389D01*
X147484389Y-87007824D01*
X147615585Y-86920162D01*
X147761357Y-86859781D01*
X147916107Y-86829000D01*
X148073893Y-86829000D01*
X148228643Y-86859781D01*
X148228643Y-86859781D01*
G37*
G36*
X146228643Y-86859781D02*
X146374415Y-86920162D01*
X146505611Y-87007824D01*
X146617176Y-87119389D01*
X146704838Y-87250585D01*
X146765219Y-87396357D01*
X146796000Y-87551107D01*
X146796000Y-87708893D01*
X146765219Y-87863643D01*
X146704838Y-88009415D01*
X146617176Y-88140611D01*
X146505611Y-88252176D01*
X146374415Y-88339838D01*
X146228643Y-88400219D01*
X146073893Y-88431000D01*
X145916107Y-88431000D01*
X145761357Y-88400219D01*
X145615585Y-88339838D01*
X145484389Y-88252176D01*
X145372824Y-88140611D01*
X145285162Y-88009415D01*
X145224781Y-87863643D01*
X145194000Y-87708893D01*
X145194000Y-87551107D01*
X145224781Y-87396357D01*
X145285162Y-87250585D01*
X145372824Y-87119389D01*
X145484389Y-87007824D01*
X145615585Y-86920162D01*
X145761357Y-86859781D01*
X145916107Y-86829000D01*
X146073893Y-86829000D01*
X146228643Y-86859781D01*
X146228643Y-86859781D01*
G37*
G36*
X143728643Y-86859781D02*
X143874415Y-86920162D01*
X144005611Y-87007824D01*
X144117176Y-87119389D01*
X144204838Y-87250585D01*
X144265219Y-87396357D01*
X144296000Y-87551107D01*
X144296000Y-87708893D01*
X144265219Y-87863643D01*
X144204838Y-88009415D01*
X144117176Y-88140611D01*
X144005611Y-88252176D01*
X143874415Y-88339838D01*
X143728643Y-88400219D01*
X143573893Y-88431000D01*
X143416107Y-88431000D01*
X143261357Y-88400219D01*
X143115585Y-88339838D01*
X142984389Y-88252176D01*
X142872824Y-88140611D01*
X142785162Y-88009415D01*
X142724781Y-87863643D01*
X142694000Y-87708893D01*
X142694000Y-87551107D01*
X142724781Y-87396357D01*
X142785162Y-87250585D01*
X142872824Y-87119389D01*
X142984389Y-87007824D01*
X143115585Y-86920162D01*
X143261357Y-86859781D01*
X143416107Y-86829000D01*
X143573893Y-86829000D01*
X143728643Y-86859781D01*
X143728643Y-86859781D01*
G37*
G36*
X140777527Y-83618736D02*
X140877410Y-83638604D01*
X141159674Y-83755521D01*
X141413705Y-83925259D01*
X141629741Y-84141295D01*
X141799479Y-84395326D01*
X141916396Y-84677590D01*
X141976000Y-84977240D01*
X141976000Y-85282760D01*
X141916396Y-85582410D01*
X141799479Y-85864674D01*
X141629741Y-86118705D01*
X141413705Y-86334741D01*
X141159674Y-86504479D01*
X140877410Y-86621396D01*
X140777527Y-86641264D01*
X140577762Y-86681000D01*
X140272238Y-86681000D01*
X140072473Y-86641264D01*
X139972590Y-86621396D01*
X139690326Y-86504479D01*
X139436295Y-86334741D01*
X139220259Y-86118705D01*
X139050521Y-85864674D01*
X138933604Y-85582410D01*
X138874000Y-85282760D01*
X138874000Y-84977240D01*
X138933604Y-84677590D01*
X139050521Y-84395326D01*
X139220259Y-84141295D01*
X139436295Y-83925259D01*
X139690326Y-83755521D01*
X139972590Y-83638604D01*
X140072473Y-83618736D01*
X140272238Y-83579000D01*
X140577762Y-83579000D01*
X140777527Y-83618736D01*
X140777527Y-83618736D01*
G37*
G36*
X153917527Y-83618736D02*
X154017410Y-83638604D01*
X154299674Y-83755521D01*
X154553705Y-83925259D01*
X154769741Y-84141295D01*
X154939479Y-84395326D01*
X155056396Y-84677590D01*
X155116000Y-84977240D01*
X155116000Y-85282760D01*
X155056396Y-85582410D01*
X154939479Y-85864674D01*
X154769741Y-86118705D01*
X154553705Y-86334741D01*
X154299674Y-86504479D01*
X154017410Y-86621396D01*
X153917527Y-86641264D01*
X153717762Y-86681000D01*
X153412238Y-86681000D01*
X153212473Y-86641264D01*
X153112590Y-86621396D01*
X152830326Y-86504479D01*
X152576295Y-86334741D01*
X152360259Y-86118705D01*
X152190521Y-85864674D01*
X152073604Y-85582410D01*
X152014000Y-85282760D01*
X152014000Y-84977240D01*
X152073604Y-84677590D01*
X152190521Y-84395326D01*
X152360259Y-84141295D01*
X152576295Y-83925259D01*
X152830326Y-83755521D01*
X153112590Y-83638604D01*
X153212473Y-83618736D01*
X153412238Y-83579000D01*
X153717762Y-83579000D01*
X153917527Y-83618736D01*
X153917527Y-83618736D01*
G37*
M02*
