M48
;DRILL file {KiCad 5.0.2-bee76a0~70~ubuntu18.04.1} date 2019 m. vasario 03 d. 16:19:33
;FORMAT={-:-/ absolute / inch / decimal}
FMAT,2
INCH,TZ
T1C0.0157
T2C0.0236
T3C0.0315
T4C0.0787
T5C0.1181
%
G90
G05
T1
X5.175Y-3.925
X5.225Y-4.4
X5.375Y-4.4
X5.4Y-4.1
X5.55Y-4.6
X5.7Y-4.6
X5.725Y-4.225
X5.8Y-4.225
X5.9Y-3.75
X6.025Y-4.175
X6.05Y-4.35
X6.225Y-3.925
X6.25Y-4.15
X6.3Y-4.175
X6.4035Y-4.15
T2
X6.4Y-3.85
X6.4Y-3.95
T3
X6.125Y-4.6
X6.125Y-4.7
X5.6494Y-3.45
X5.7478Y-3.45
X5.8266Y-3.45
X5.925Y-3.45
X6.525Y-3.775
X6.525Y-3.875
X5.725Y-4.375
X5.725Y-4.475
T4
X5.5285Y-3.3516
X6.0459Y-3.3516
T5
X5.125Y-3.325
X6.475Y-3.325
T0
M30
