%TF.GenerationSoftware,KiCad,Pcbnew,5.0.2-bee76a0~70~ubuntu18.04.1*%
%TF.CreationDate,2019-02-03T16:19:42+02:00*%
%TF.ProjectId,1Cell_LiPO_BOOST_converter,3143656c-6c5f-44c6-9950-4f5f424f4f53,A*%
%TF.SameCoordinates,Original*%
%TF.FileFunction,Legend,Top*%
%TF.FilePolarity,Positive*%
%FSLAX46Y46*%
G04 Gerber Fmt 4.6, Leading zero omitted, Abs format (unit mm)*
G04 Created by KiCad (PCBNEW 5.0.2-bee76a0~70~ubuntu18.04.1) date 2019 m. vasario 03 d. 16:19:42*
%MOMM*%
%LPD*%
G01*
G04 APERTURE LIST*
%ADD10C,0.200000*%
%ADD11C,0.250000*%
%ADD12C,0.120000*%
%ADD13C,0.150000*%
%ADD14C,0.010000*%
G04 APERTURE END LIST*
D10*
X133350000Y-99695000D02*
X133985000Y-100330000D01*
X133985000Y-99060000D02*
X133350000Y-99695000D01*
X133350000Y-99695000D02*
X133985000Y-99060000D01*
X135890000Y-99695000D02*
X133350000Y-99695000D01*
X140970000Y-109220000D02*
X128270000Y-109220000D01*
X147955000Y-109220000D02*
X143510000Y-109220000D01*
D11*
X160120758Y-95227857D02*
X160370758Y-96427857D01*
X160920758Y-95227857D01*
X161342187Y-96427857D02*
X161235044Y-96370714D01*
X161185044Y-96313571D01*
X161142187Y-96199285D01*
X161185044Y-95856428D01*
X161256473Y-95742142D01*
X161320758Y-95685000D01*
X161442187Y-95627857D01*
X161613616Y-95627857D01*
X161720758Y-95685000D01*
X161770758Y-95742142D01*
X161813616Y-95856428D01*
X161770758Y-96199285D01*
X161699330Y-96313571D01*
X161635044Y-96370714D01*
X161513616Y-96427857D01*
X161342187Y-96427857D01*
X162870758Y-95627857D02*
X162770758Y-96427857D01*
X162356473Y-95627857D02*
X162277901Y-96256428D01*
X162320758Y-96370714D01*
X162427901Y-96427857D01*
X162599330Y-96427857D01*
X162720758Y-96370714D01*
X162785044Y-96313571D01*
X163270758Y-95627857D02*
X163727901Y-95627857D01*
X163492187Y-95227857D02*
X163363616Y-96256428D01*
X163406473Y-96370714D01*
X163513616Y-96427857D01*
X163627901Y-96427857D01*
X151195758Y-117452857D02*
X151445758Y-118652857D01*
X151995758Y-117452857D01*
X152245758Y-118652857D02*
X152345758Y-117852857D01*
X152395758Y-117452857D02*
X152331473Y-117510000D01*
X152381473Y-117567142D01*
X152445758Y-117510000D01*
X152395758Y-117452857D01*
X152381473Y-117567142D01*
X152917187Y-117852857D02*
X152817187Y-118652857D01*
X152902901Y-117967142D02*
X152967187Y-117910000D01*
X153088616Y-117852857D01*
X153260044Y-117852857D01*
X153367187Y-117910000D01*
X153410044Y-118024285D01*
X153331473Y-118652857D01*
X159070044Y-119865714D02*
X158948616Y-119922857D01*
X158720044Y-119922857D01*
X158612901Y-119865714D01*
X158562901Y-119808571D01*
X158520044Y-119694285D01*
X158562901Y-119351428D01*
X158634330Y-119237142D01*
X158698616Y-119180000D01*
X158820044Y-119122857D01*
X159048616Y-119122857D01*
X159155758Y-119180000D01*
X159748616Y-119922857D02*
X159641473Y-119865714D01*
X159591473Y-119808571D01*
X159548616Y-119694285D01*
X159591473Y-119351428D01*
X159662901Y-119237142D01*
X159727187Y-119180000D01*
X159848616Y-119122857D01*
X160020044Y-119122857D01*
X160127187Y-119180000D01*
X160177187Y-119237142D01*
X160220044Y-119351428D01*
X160177187Y-119694285D01*
X160105758Y-119808571D01*
X160041473Y-119865714D01*
X159920044Y-119922857D01*
X159748616Y-119922857D01*
X160762901Y-119122857D02*
X160662901Y-119922857D01*
X160748616Y-119237142D02*
X160812901Y-119180000D01*
X160934330Y-119122857D01*
X161105758Y-119122857D01*
X161212901Y-119180000D01*
X161255758Y-119294285D01*
X161177187Y-119922857D01*
X161734330Y-119122857D02*
X161920044Y-119922857D01*
X162305758Y-119122857D01*
X163127187Y-119865714D02*
X163005758Y-119922857D01*
X162777187Y-119922857D01*
X162670044Y-119865714D01*
X162627187Y-119751428D01*
X162684330Y-119294285D01*
X162755758Y-119180000D01*
X162877187Y-119122857D01*
X163105758Y-119122857D01*
X163212901Y-119180000D01*
X163255758Y-119294285D01*
X163241473Y-119408571D01*
X162655758Y-119522857D01*
X163691473Y-119922857D02*
X163791473Y-119122857D01*
X163762901Y-119351428D02*
X163834330Y-119237142D01*
X163898616Y-119180000D01*
X164020044Y-119122857D01*
X164134330Y-119122857D01*
X164362901Y-119122857D02*
X164820044Y-119122857D01*
X164584330Y-118722857D02*
X164455758Y-119751428D01*
X164498616Y-119865714D01*
X164605758Y-119922857D01*
X164720044Y-119922857D01*
X165584330Y-119865714D02*
X165462901Y-119922857D01*
X165234330Y-119922857D01*
X165127187Y-119865714D01*
X165084330Y-119751428D01*
X165141473Y-119294285D01*
X165212901Y-119180000D01*
X165334330Y-119122857D01*
X165562901Y-119122857D01*
X165670044Y-119180000D01*
X165712901Y-119294285D01*
X165698616Y-119408571D01*
X165112901Y-119522857D01*
X166148616Y-119922857D02*
X166248616Y-119122857D01*
X166220044Y-119351428D02*
X166291473Y-119237142D01*
X166355758Y-119180000D01*
X166477187Y-119122857D01*
X166591473Y-119122857D01*
X160312901Y-117389285D02*
X160477187Y-117446428D01*
X160527187Y-117503571D01*
X160570044Y-117617857D01*
X160548616Y-117789285D01*
X160477187Y-117903571D01*
X160412901Y-117960714D01*
X160291473Y-118017857D01*
X159834330Y-118017857D01*
X159984330Y-116817857D01*
X160384330Y-116817857D01*
X160491473Y-116875000D01*
X160541473Y-116932142D01*
X160584330Y-117046428D01*
X160570044Y-117160714D01*
X160498616Y-117275000D01*
X160434330Y-117332142D01*
X160312901Y-117389285D01*
X159912901Y-117389285D01*
X161412901Y-116817857D02*
X161641473Y-116817857D01*
X161748616Y-116875000D01*
X161848616Y-116989285D01*
X161877187Y-117217857D01*
X161827187Y-117617857D01*
X161741473Y-117846428D01*
X161612901Y-117960714D01*
X161491473Y-118017857D01*
X161262901Y-118017857D01*
X161155758Y-117960714D01*
X161055758Y-117846428D01*
X161027187Y-117617857D01*
X161077187Y-117217857D01*
X161162901Y-116989285D01*
X161291473Y-116875000D01*
X161412901Y-116817857D01*
X162670044Y-116817857D02*
X162898616Y-116817857D01*
X163005758Y-116875000D01*
X163105758Y-116989285D01*
X163134330Y-117217857D01*
X163084330Y-117617857D01*
X162998616Y-117846428D01*
X162870044Y-117960714D01*
X162748616Y-118017857D01*
X162520044Y-118017857D01*
X162412901Y-117960714D01*
X162312901Y-117846428D01*
X162284330Y-117617857D01*
X162334330Y-117217857D01*
X162420044Y-116989285D01*
X162548616Y-116875000D01*
X162670044Y-116817857D01*
X163498616Y-117960714D02*
X163662901Y-118017857D01*
X163948616Y-118017857D01*
X164070044Y-117960714D01*
X164134330Y-117903571D01*
X164205758Y-117789285D01*
X164220044Y-117675000D01*
X164177187Y-117560714D01*
X164127187Y-117503571D01*
X164020044Y-117446428D01*
X163798616Y-117389285D01*
X163691473Y-117332142D01*
X163641473Y-117275000D01*
X163598616Y-117160714D01*
X163612901Y-117046428D01*
X163684330Y-116932142D01*
X163748616Y-116875000D01*
X163870044Y-116817857D01*
X164155758Y-116817857D01*
X164320044Y-116875000D01*
X164670044Y-116817857D02*
X165355758Y-116817857D01*
X164862901Y-118017857D02*
X165012901Y-116817857D01*
D10*
X148590000Y-93980000D02*
X166370000Y-93980000D01*
D11*
X131508616Y-96897857D02*
X131694330Y-97697857D01*
X132080044Y-96897857D01*
X132608616Y-97697857D02*
X132501473Y-97640714D01*
X132451473Y-97583571D01*
X132408616Y-97469285D01*
X132451473Y-97126428D01*
X132522901Y-97012142D01*
X132587187Y-96955000D01*
X132708616Y-96897857D01*
X132880044Y-96897857D01*
X132987187Y-96955000D01*
X133037187Y-97012142D01*
X133080044Y-97126428D01*
X133037187Y-97469285D01*
X132965758Y-97583571D01*
X132901473Y-97640714D01*
X132780044Y-97697857D01*
X132608616Y-97697857D01*
X133694330Y-97697857D02*
X133587187Y-97640714D01*
X133544330Y-97526428D01*
X133672901Y-96497857D01*
X134080044Y-96897857D02*
X134537187Y-96897857D01*
X134301473Y-96497857D02*
X134172901Y-97526428D01*
X134215758Y-97640714D01*
X134322901Y-97697857D01*
X134437187Y-97697857D01*
X135351473Y-97697857D02*
X135430044Y-97069285D01*
X135387187Y-96955000D01*
X135280044Y-96897857D01*
X135051473Y-96897857D01*
X134930044Y-96955000D01*
X135358616Y-97640714D02*
X135237187Y-97697857D01*
X134951473Y-97697857D01*
X134844330Y-97640714D01*
X134801473Y-97526428D01*
X134815758Y-97412142D01*
X134887187Y-97297857D01*
X135008616Y-97240714D01*
X135294330Y-97240714D01*
X135415758Y-97183571D01*
X136537187Y-96897857D02*
X136415758Y-97869285D01*
X136344330Y-97983571D01*
X136280044Y-98040714D01*
X136158616Y-98097857D01*
X135987187Y-98097857D01*
X135880044Y-98040714D01*
X136444330Y-97640714D02*
X136322901Y-97697857D01*
X136094330Y-97697857D01*
X135987187Y-97640714D01*
X135937187Y-97583571D01*
X135894330Y-97469285D01*
X135937187Y-97126428D01*
X136008616Y-97012142D01*
X136072901Y-96955000D01*
X136194330Y-96897857D01*
X136422901Y-96897857D01*
X136530044Y-96955000D01*
X137472901Y-97640714D02*
X137351473Y-97697857D01*
X137122901Y-97697857D01*
X137015758Y-97640714D01*
X136972901Y-97526428D01*
X137030044Y-97069285D01*
X137101473Y-96955000D01*
X137222901Y-96897857D01*
X137451473Y-96897857D01*
X137558616Y-96955000D01*
X137601473Y-97069285D01*
X137587187Y-97183571D01*
X137001473Y-97297857D01*
X130122901Y-95792857D02*
X129551473Y-95792857D01*
X129701473Y-94592857D01*
X130694330Y-95792857D02*
X130587187Y-95735714D01*
X130537187Y-95678571D01*
X130494330Y-95564285D01*
X130537187Y-95221428D01*
X130608616Y-95107142D01*
X130672901Y-95050000D01*
X130794330Y-94992857D01*
X130965758Y-94992857D01*
X131072901Y-95050000D01*
X131122901Y-95107142D01*
X131165758Y-95221428D01*
X131122901Y-95564285D01*
X131051473Y-95678571D01*
X130987187Y-95735714D01*
X130865758Y-95792857D01*
X130694330Y-95792857D01*
X131594330Y-94992857D02*
X131722901Y-95792857D01*
X132022901Y-95221428D01*
X132180044Y-95792857D01*
X132508616Y-94992857D01*
X133780044Y-95792857D02*
X133930044Y-94592857D01*
X133872901Y-95050000D02*
X133994330Y-94992857D01*
X134222901Y-94992857D01*
X134330044Y-95050000D01*
X134380044Y-95107142D01*
X134422901Y-95221428D01*
X134380044Y-95564285D01*
X134308616Y-95678571D01*
X134244330Y-95735714D01*
X134122901Y-95792857D01*
X133894330Y-95792857D01*
X133787187Y-95735714D01*
X135380044Y-95792857D02*
X135458616Y-95164285D01*
X135415758Y-95050000D01*
X135308616Y-94992857D01*
X135080044Y-94992857D01*
X134958616Y-95050000D01*
X135387187Y-95735714D02*
X135265758Y-95792857D01*
X134980044Y-95792857D01*
X134872901Y-95735714D01*
X134830044Y-95621428D01*
X134844330Y-95507142D01*
X134915758Y-95392857D01*
X135037187Y-95335714D01*
X135322901Y-95335714D01*
X135444330Y-95278571D01*
X135880044Y-94992857D02*
X136337187Y-94992857D01*
X136101473Y-94592857D02*
X135972901Y-95621428D01*
X136015758Y-95735714D01*
X136122901Y-95792857D01*
X136237187Y-95792857D01*
X136565758Y-94992857D02*
X137022901Y-94992857D01*
X136787187Y-94592857D02*
X136658616Y-95621428D01*
X136701473Y-95735714D01*
X136808616Y-95792857D01*
X136922901Y-95792857D01*
X137787187Y-95735714D02*
X137665758Y-95792857D01*
X137437187Y-95792857D01*
X137330044Y-95735714D01*
X137287187Y-95621428D01*
X137344330Y-95164285D01*
X137415758Y-95050000D01*
X137537187Y-94992857D01*
X137765758Y-94992857D01*
X137872901Y-95050000D01*
X137915758Y-95164285D01*
X137901473Y-95278571D01*
X137315758Y-95392857D01*
X138351473Y-95792857D02*
X138451473Y-94992857D01*
X138422901Y-95221428D02*
X138494330Y-95107142D01*
X138558616Y-95050000D01*
X138680044Y-94992857D01*
X138794330Y-94992857D01*
X139080044Y-94992857D02*
X139265758Y-95792857D01*
X139651473Y-94992857D02*
X139265758Y-95792857D01*
X139115758Y-96078571D01*
X139051473Y-96135714D01*
X138930044Y-96192857D01*
D10*
X147955000Y-93980000D02*
X128270000Y-93980000D01*
X147955000Y-105410000D02*
X147955000Y-107950000D01*
X147955000Y-93980000D02*
X147955000Y-105410000D01*
D11*
X130129330Y-111032857D02*
X129557901Y-111032857D01*
X129707901Y-109832857D01*
X130529330Y-111032857D02*
X130629330Y-110232857D01*
X130679330Y-109832857D02*
X130615044Y-109890000D01*
X130665044Y-109947142D01*
X130729330Y-109890000D01*
X130679330Y-109832857D01*
X130665044Y-109947142D01*
X131100758Y-111032857D02*
X131250758Y-109832857D01*
X131707901Y-109832857D01*
X131815044Y-109890000D01*
X131865044Y-109947142D01*
X131907901Y-110061428D01*
X131886473Y-110232857D01*
X131815044Y-110347142D01*
X131750758Y-110404285D01*
X131629330Y-110461428D01*
X131172187Y-110461428D01*
X132679330Y-109832857D02*
X132907901Y-109832857D01*
X133015044Y-109890000D01*
X133115044Y-110004285D01*
X133143616Y-110232857D01*
X133093616Y-110632857D01*
X133007901Y-110861428D01*
X132879330Y-110975714D01*
X132757901Y-111032857D01*
X132529330Y-111032857D01*
X132422187Y-110975714D01*
X132322187Y-110861428D01*
X132293616Y-110632857D01*
X132343616Y-110232857D01*
X132429330Y-110004285D01*
X132557901Y-109890000D01*
X132679330Y-109832857D01*
X134993616Y-110975714D02*
X134872187Y-111032857D01*
X134643616Y-111032857D01*
X134536473Y-110975714D01*
X134486473Y-110918571D01*
X134443616Y-110804285D01*
X134486473Y-110461428D01*
X134557901Y-110347142D01*
X134622187Y-110290000D01*
X134743616Y-110232857D01*
X134972187Y-110232857D01*
X135079330Y-110290000D01*
X135500758Y-111032857D02*
X135650758Y-109832857D01*
X136015044Y-111032857D02*
X136093616Y-110404285D01*
X136050758Y-110290000D01*
X135943616Y-110232857D01*
X135772187Y-110232857D01*
X135650758Y-110290000D01*
X135586473Y-110347142D01*
X137100758Y-111032857D02*
X137179330Y-110404285D01*
X137136473Y-110290000D01*
X137029330Y-110232857D01*
X136800758Y-110232857D01*
X136679330Y-110290000D01*
X137107901Y-110975714D02*
X136986473Y-111032857D01*
X136700758Y-111032857D01*
X136593616Y-110975714D01*
X136550758Y-110861428D01*
X136565044Y-110747142D01*
X136636473Y-110632857D01*
X136757901Y-110575714D01*
X137043616Y-110575714D01*
X137165044Y-110518571D01*
X137672187Y-111032857D02*
X137772187Y-110232857D01*
X137743616Y-110461428D02*
X137815044Y-110347142D01*
X137879330Y-110290000D01*
X138000758Y-110232857D01*
X138115044Y-110232857D01*
X139029330Y-110232857D02*
X138907901Y-111204285D01*
X138836473Y-111318571D01*
X138772187Y-111375714D01*
X138650758Y-111432857D01*
X138479330Y-111432857D01*
X138372187Y-111375714D01*
X138936473Y-110975714D02*
X138815044Y-111032857D01*
X138586473Y-111032857D01*
X138479330Y-110975714D01*
X138429330Y-110918571D01*
X138386473Y-110804285D01*
X138429330Y-110461428D01*
X138500758Y-110347142D01*
X138565044Y-110290000D01*
X138686473Y-110232857D01*
X138915044Y-110232857D01*
X139022187Y-110290000D01*
X139965044Y-110975714D02*
X139843616Y-111032857D01*
X139615044Y-111032857D01*
X139507901Y-110975714D01*
X139465044Y-110861428D01*
X139522187Y-110404285D01*
X139593616Y-110290000D01*
X139715044Y-110232857D01*
X139943616Y-110232857D01*
X140050758Y-110290000D01*
X140093616Y-110404285D01*
X140079330Y-110518571D01*
X139493616Y-110632857D01*
X140529330Y-111032857D02*
X140629330Y-110232857D01*
X140600758Y-110461428D02*
X140672187Y-110347142D01*
X140736473Y-110290000D01*
X140857901Y-110232857D01*
X140972187Y-110232857D01*
D10*
X147955000Y-109220000D02*
X147955000Y-120650000D01*
D12*
X163980000Y-103375000D02*
X163980000Y-103175000D01*
X166830000Y-107625000D02*
X166830000Y-101925000D01*
X163980000Y-106375000D02*
X163980000Y-104675000D01*
X165030000Y-108225000D02*
X165820000Y-108225000D01*
X165820000Y-101325000D02*
X165030000Y-101325000D01*
X144085000Y-114995000D02*
X146745000Y-114995000D01*
X144085000Y-112395000D02*
X144085000Y-114995000D01*
X146745000Y-112395000D02*
X146745000Y-114995000D01*
X144085000Y-112395000D02*
X146745000Y-112395000D01*
X144085000Y-111125000D02*
X144085000Y-109795000D01*
X144085000Y-109795000D02*
X145415000Y-109795000D01*
D13*
X161660000Y-100860000D02*
X161660000Y-97260000D01*
X161660000Y-97260000D02*
X162160000Y-96760000D01*
X162160000Y-96760000D02*
X162960000Y-96760000D01*
X162960000Y-96760000D02*
X163460000Y-97260000D01*
X163460000Y-97260000D02*
X163460000Y-100860000D01*
X163460000Y-100860000D02*
X162960000Y-101360000D01*
X162960000Y-101360000D02*
X162160000Y-101360000D01*
X162160000Y-101360000D02*
X161660000Y-100860000D01*
D12*
X166550000Y-114300000D02*
G75*
G03X166550000Y-114300000I-1450000J0D01*
G01*
X151945000Y-115570000D02*
G75*
G03X151945000Y-115570000I-1450000J0D01*
G01*
X151310000Y-106680000D02*
G75*
G03X151310000Y-106680000I-1450000J0D01*
G01*
X135530000Y-115602936D02*
X135530000Y-116807064D01*
X133710000Y-115602936D02*
X133710000Y-116807064D01*
X160380000Y-110522936D02*
X160380000Y-111727064D01*
X162200000Y-110522936D02*
X162200000Y-111727064D01*
X157512936Y-96880000D02*
X158717064Y-96880000D01*
X157512936Y-98700000D02*
X158717064Y-98700000D01*
X156905000Y-115510000D02*
X154245000Y-115510000D01*
X156905000Y-118110000D02*
X156905000Y-115510000D01*
X154245000Y-118110000D02*
X154245000Y-115510000D01*
X156905000Y-118110000D02*
X154245000Y-118110000D01*
X156905000Y-119380000D02*
X156905000Y-120710000D01*
X156905000Y-120710000D02*
X155575000Y-120710000D01*
X164405000Y-99755000D02*
X167065000Y-99755000D01*
X164405000Y-97155000D02*
X164405000Y-99755000D01*
X167065000Y-97155000D02*
X167065000Y-99755000D01*
X164405000Y-97155000D02*
X167065000Y-97155000D01*
X164405000Y-95885000D02*
X164405000Y-94555000D01*
X164405000Y-94555000D02*
X165735000Y-94555000D01*
X131885000Y-120650000D02*
X131885000Y-120270000D01*
X127835000Y-120650000D02*
X127575000Y-120650000D01*
X131885000Y-120650000D02*
X130115000Y-120650000D01*
X131885000Y-113030000D02*
X131885000Y-113410000D01*
X130115000Y-113030000D02*
X131885000Y-113030000D01*
X127575000Y-113030000D02*
X127835000Y-113030000D01*
X157845000Y-100620000D02*
X155845000Y-100620000D01*
X155845000Y-100620000D02*
X155845000Y-104520000D01*
X157845000Y-100620000D02*
X157845000Y-104520000D01*
X157610000Y-106790000D02*
X159910000Y-106790000D01*
X159910000Y-106790000D02*
X159910000Y-114190000D01*
X159910000Y-114190000D02*
X157610000Y-114190000D01*
X154810000Y-114190000D02*
X152510000Y-114190000D01*
X152510000Y-114190000D02*
X152510000Y-106790000D01*
X152510000Y-106790000D02*
X154810000Y-106790000D01*
X132935000Y-120975000D02*
X135620000Y-120975000D01*
X132935000Y-119055000D02*
X132935000Y-120975000D01*
X135620000Y-119055000D02*
X132935000Y-119055000D01*
X130500000Y-102600000D02*
X130500000Y-99915000D01*
X130500000Y-99915000D02*
X128580000Y-99915000D01*
X128580000Y-99915000D02*
X128580000Y-102600000D01*
X143000000Y-105720000D02*
X141540000Y-105720000D01*
X143000000Y-102560000D02*
X140840000Y-102560000D01*
X143000000Y-102560000D02*
X143000000Y-103490000D01*
X143000000Y-105720000D02*
X143000000Y-104790000D01*
X146810000Y-105720000D02*
X146810000Y-104790000D01*
X146810000Y-102560000D02*
X146810000Y-103490000D01*
X146810000Y-102560000D02*
X144650000Y-102560000D01*
X146810000Y-105720000D02*
X145350000Y-105720000D01*
X158410000Y-101970000D02*
X158410000Y-104420000D01*
X161630000Y-103770000D02*
X161630000Y-101970000D01*
X139330000Y-113960000D02*
X137530000Y-113960000D01*
X137530000Y-117180000D02*
X139980000Y-117180000D01*
X141625000Y-100210000D02*
X141625000Y-95370000D01*
X146665000Y-100210000D02*
X146665000Y-95370000D01*
X141625000Y-100210000D02*
X142905000Y-100210000D01*
X145385000Y-100210000D02*
X146665000Y-100210000D01*
X141625000Y-95370000D02*
X142105000Y-95370000D01*
X143885000Y-95370000D02*
X144405000Y-95370000D01*
X146185000Y-95370000D02*
X146665000Y-95370000D01*
X142005000Y-100210000D02*
X142005000Y-100210000D01*
X142005000Y-100210000D02*
X142905000Y-100210000D01*
X142005000Y-100210000D02*
X142905000Y-100210000D01*
X152627058Y-99402914D02*
X153144214Y-99402914D01*
X152627058Y-97982914D02*
X153144214Y-97982914D01*
X139775000Y-103881422D02*
X139775000Y-104398578D01*
X138355000Y-103881422D02*
X138355000Y-104398578D01*
X134361422Y-102310000D02*
X134878578Y-102310000D01*
X134361422Y-100890000D02*
X134878578Y-100890000D01*
X134878578Y-104850000D02*
X134361422Y-104850000D01*
X134878578Y-103430000D02*
X134361422Y-103430000D01*
X134361422Y-107390000D02*
X134878578Y-107390000D01*
X134361422Y-105970000D02*
X134878578Y-105970000D01*
X146125000Y-119121422D02*
X146125000Y-119638578D01*
X144705000Y-119121422D02*
X144705000Y-119638578D01*
X138171422Y-119455000D02*
X138688578Y-119455000D01*
X138171422Y-118035000D02*
X138688578Y-118035000D01*
X142616422Y-106605000D02*
X143133578Y-106605000D01*
X142616422Y-108025000D02*
X143133578Y-108025000D01*
X130250000Y-105668578D02*
X130250000Y-105151422D01*
X128830000Y-105668578D02*
X128830000Y-105151422D01*
X153144214Y-97497914D02*
X152627058Y-97497914D01*
X153144214Y-96077914D02*
X152627058Y-96077914D01*
X153144214Y-99887914D02*
X152627058Y-99887914D01*
X153144214Y-101307914D02*
X152627058Y-101307914D01*
X152627058Y-101792914D02*
X153144214Y-101792914D01*
X152627058Y-103212914D02*
X153144214Y-103212914D01*
X153144214Y-103697914D02*
X152627058Y-103697914D01*
X153144214Y-105117914D02*
X152627058Y-105117914D01*
X141981422Y-118035000D02*
X142498578Y-118035000D01*
X141981422Y-119455000D02*
X142498578Y-119455000D01*
D14*
G36*
X163750814Y-87638931D02*
X163834635Y-88083555D01*
X164143920Y-88211053D01*
X164453206Y-88338551D01*
X164824246Y-88086246D01*
X164928157Y-88015996D01*
X165022087Y-87953272D01*
X165101652Y-87900938D01*
X165162470Y-87861857D01*
X165200157Y-87838893D01*
X165210421Y-87833942D01*
X165228910Y-87846676D01*
X165268420Y-87881882D01*
X165324522Y-87935062D01*
X165392787Y-88001718D01*
X165468786Y-88077354D01*
X165548092Y-88157472D01*
X165626275Y-88237574D01*
X165698907Y-88313164D01*
X165761559Y-88379745D01*
X165809803Y-88432818D01*
X165839210Y-88467887D01*
X165846241Y-88479623D01*
X165836123Y-88501260D01*
X165807759Y-88548662D01*
X165764129Y-88617193D01*
X165708218Y-88702215D01*
X165643006Y-88799093D01*
X165605219Y-88854350D01*
X165536343Y-88955248D01*
X165475140Y-89046299D01*
X165424578Y-89122970D01*
X165387628Y-89180728D01*
X165367258Y-89215043D01*
X165364197Y-89222254D01*
X165371136Y-89242748D01*
X165390051Y-89290513D01*
X165418087Y-89358832D01*
X165452391Y-89440989D01*
X165490109Y-89530270D01*
X165528387Y-89619958D01*
X165564370Y-89703338D01*
X165595206Y-89773694D01*
X165618039Y-89824310D01*
X165630017Y-89848471D01*
X165630724Y-89849422D01*
X165649531Y-89854036D01*
X165699618Y-89864328D01*
X165775793Y-89879287D01*
X165872865Y-89897901D01*
X165985643Y-89919159D01*
X166051442Y-89931418D01*
X166171950Y-89954362D01*
X166280797Y-89976195D01*
X166372476Y-89995722D01*
X166441481Y-90011748D01*
X166482304Y-90023079D01*
X166490511Y-90026674D01*
X166498548Y-90051006D01*
X166505033Y-90105959D01*
X166509970Y-90185108D01*
X166513364Y-90282026D01*
X166515218Y-90390287D01*
X166515538Y-90503465D01*
X166514327Y-90615135D01*
X166511590Y-90718868D01*
X166507331Y-90808241D01*
X166501555Y-90876826D01*
X166494267Y-90918197D01*
X166489895Y-90926810D01*
X166463764Y-90937133D01*
X166408393Y-90951892D01*
X166331107Y-90969352D01*
X166239230Y-90987780D01*
X166207158Y-90993741D01*
X166052524Y-91022066D01*
X165930375Y-91044876D01*
X165836673Y-91063080D01*
X165767384Y-91077583D01*
X165718471Y-91089292D01*
X165685897Y-91099115D01*
X165665628Y-91107956D01*
X165653626Y-91116724D01*
X165651947Y-91118457D01*
X165635184Y-91146371D01*
X165609614Y-91200695D01*
X165577788Y-91274777D01*
X165542260Y-91361965D01*
X165505583Y-91455608D01*
X165470311Y-91549052D01*
X165438996Y-91635647D01*
X165414193Y-91708740D01*
X165398454Y-91761678D01*
X165394332Y-91787811D01*
X165394676Y-91788726D01*
X165408641Y-91810086D01*
X165440322Y-91857084D01*
X165486391Y-91924827D01*
X165543518Y-92008423D01*
X165608373Y-92102982D01*
X165626843Y-92129854D01*
X165692699Y-92227275D01*
X165750650Y-92316163D01*
X165797538Y-92391412D01*
X165830207Y-92447920D01*
X165845500Y-92480581D01*
X165846241Y-92484593D01*
X165833392Y-92505684D01*
X165797888Y-92547464D01*
X165744293Y-92605445D01*
X165677171Y-92675135D01*
X165601087Y-92752045D01*
X165520604Y-92831683D01*
X165440287Y-92909561D01*
X165364699Y-92981186D01*
X165298405Y-93042070D01*
X165245969Y-93087721D01*
X165211955Y-93113650D01*
X165202545Y-93117883D01*
X165180643Y-93107912D01*
X165135800Y-93081020D01*
X165075321Y-93041736D01*
X165028789Y-93010117D01*
X164944475Y-92952098D01*
X164844626Y-92883784D01*
X164744473Y-92815579D01*
X164690627Y-92779075D01*
X164508371Y-92655800D01*
X164355381Y-92738520D01*
X164285682Y-92774759D01*
X164226414Y-92802926D01*
X164186311Y-92818991D01*
X164176103Y-92821226D01*
X164163829Y-92804722D01*
X164139613Y-92758082D01*
X164105263Y-92685609D01*
X164062588Y-92591606D01*
X164013394Y-92480374D01*
X163959490Y-92356215D01*
X163902684Y-92223432D01*
X163844782Y-92086327D01*
X163787593Y-91949202D01*
X163732924Y-91816358D01*
X163682584Y-91692098D01*
X163638380Y-91580725D01*
X163602119Y-91486539D01*
X163575609Y-91413844D01*
X163560658Y-91366941D01*
X163558254Y-91350833D01*
X163577311Y-91330286D01*
X163619036Y-91296933D01*
X163674706Y-91257702D01*
X163679378Y-91254599D01*
X163823264Y-91139423D01*
X163939283Y-91005053D01*
X164026430Y-90855784D01*
X164083699Y-90695913D01*
X164110086Y-90529737D01*
X164104585Y-90361552D01*
X164066190Y-90195655D01*
X163993895Y-90036342D01*
X163972626Y-90001487D01*
X163861996Y-89860737D01*
X163731302Y-89747714D01*
X163585064Y-89663003D01*
X163427808Y-89607194D01*
X163264057Y-89580874D01*
X163098333Y-89584630D01*
X162935162Y-89619050D01*
X162779065Y-89684723D01*
X162634567Y-89782235D01*
X162589869Y-89821813D01*
X162476112Y-89945703D01*
X162393218Y-90076124D01*
X162336356Y-90222315D01*
X162304687Y-90367088D01*
X162296869Y-90529860D01*
X162322938Y-90693440D01*
X162380245Y-90852298D01*
X162466144Y-91000906D01*
X162577986Y-91133735D01*
X162713123Y-91245256D01*
X162730883Y-91257011D01*
X162787150Y-91295508D01*
X162829923Y-91328863D01*
X162850372Y-91350160D01*
X162850669Y-91350833D01*
X162846279Y-91373871D01*
X162828876Y-91426157D01*
X162800268Y-91503390D01*
X162762265Y-91601268D01*
X162716674Y-91715491D01*
X162665303Y-91841758D01*
X162609962Y-91975767D01*
X162552458Y-92113218D01*
X162494601Y-92249808D01*
X162438198Y-92381237D01*
X162385058Y-92503205D01*
X162336990Y-92611409D01*
X162295801Y-92701549D01*
X162263301Y-92769323D01*
X162241297Y-92810430D01*
X162232436Y-92821226D01*
X162205360Y-92812819D01*
X162154697Y-92790272D01*
X162089183Y-92757613D01*
X162053159Y-92738520D01*
X161900168Y-92655800D01*
X161717912Y-92779075D01*
X161624875Y-92842228D01*
X161523015Y-92911727D01*
X161427562Y-92977165D01*
X161379750Y-93010117D01*
X161312505Y-93055273D01*
X161255564Y-93091057D01*
X161216354Y-93112938D01*
X161203619Y-93117563D01*
X161185083Y-93105085D01*
X161144059Y-93070252D01*
X161084525Y-93016678D01*
X161010458Y-92947983D01*
X160925835Y-92867781D01*
X160872315Y-92816286D01*
X160778681Y-92724286D01*
X160697759Y-92641999D01*
X160632823Y-92572945D01*
X160587142Y-92520644D01*
X160563989Y-92488616D01*
X160561768Y-92482116D01*
X160572076Y-92457394D01*
X160600561Y-92407405D01*
X160644063Y-92337212D01*
X160699423Y-92251875D01*
X160763480Y-92156456D01*
X160781697Y-92129854D01*
X160848073Y-92033167D01*
X160907622Y-91946117D01*
X160957016Y-91873595D01*
X160992925Y-91820493D01*
X161012019Y-91791703D01*
X161013864Y-91788726D01*
X161011105Y-91765782D01*
X160996462Y-91715336D01*
X160972487Y-91644041D01*
X160941734Y-91558547D01*
X160906756Y-91465507D01*
X160870107Y-91371574D01*
X160834339Y-91283399D01*
X160802006Y-91207634D01*
X160775662Y-91150931D01*
X160757858Y-91119943D01*
X160756593Y-91118457D01*
X160745706Y-91109601D01*
X160727318Y-91100843D01*
X160697394Y-91091277D01*
X160651897Y-91079996D01*
X160586791Y-91066093D01*
X160498039Y-91048663D01*
X160381607Y-91026798D01*
X160233458Y-90999591D01*
X160201382Y-90993741D01*
X160106314Y-90975374D01*
X160023435Y-90957405D01*
X159960070Y-90941569D01*
X159923542Y-90929600D01*
X159918644Y-90926810D01*
X159910573Y-90902072D01*
X159904013Y-90846790D01*
X159898967Y-90767389D01*
X159895441Y-90670296D01*
X159893439Y-90561938D01*
X159892964Y-90448740D01*
X159894023Y-90337128D01*
X159896618Y-90233529D01*
X159900754Y-90144368D01*
X159906437Y-90076072D01*
X159913669Y-90035066D01*
X159918029Y-90026674D01*
X159942302Y-90018208D01*
X159997574Y-90004435D01*
X160078338Y-89986550D01*
X160179088Y-89965748D01*
X160294317Y-89943223D01*
X160357098Y-89931418D01*
X160476213Y-89909151D01*
X160582435Y-89888979D01*
X160670573Y-89871915D01*
X160735434Y-89858969D01*
X160771826Y-89851155D01*
X160777816Y-89849422D01*
X160787939Y-89829890D01*
X160809338Y-89782843D01*
X160839161Y-89715003D01*
X160874555Y-89633091D01*
X160912668Y-89543828D01*
X160950647Y-89453935D01*
X160985640Y-89370135D01*
X161014794Y-89299147D01*
X161035257Y-89247694D01*
X161044177Y-89222497D01*
X161044343Y-89221396D01*
X161034231Y-89201519D01*
X161005883Y-89155777D01*
X160962277Y-89088717D01*
X160906394Y-89004884D01*
X160841213Y-88908826D01*
X160803321Y-88853650D01*
X160734275Y-88752481D01*
X160672950Y-88660630D01*
X160622337Y-88582744D01*
X160585429Y-88523469D01*
X160565218Y-88487451D01*
X160562299Y-88479377D01*
X160574847Y-88460584D01*
X160609537Y-88420457D01*
X160661937Y-88363493D01*
X160727616Y-88294185D01*
X160802144Y-88217031D01*
X160881087Y-88136525D01*
X160960017Y-88057163D01*
X161034500Y-87983440D01*
X161100106Y-87919852D01*
X161152404Y-87870894D01*
X161186961Y-87841061D01*
X161198522Y-87833942D01*
X161217346Y-87843953D01*
X161262369Y-87872078D01*
X161329213Y-87915454D01*
X161413501Y-87971218D01*
X161510856Y-88036506D01*
X161584293Y-88086246D01*
X161955333Y-88338551D01*
X162573905Y-88083555D01*
X162657725Y-87638931D01*
X162741546Y-87194307D01*
X163666994Y-87194307D01*
X163750814Y-87638931D01*
X163750814Y-87638931D01*
G37*
X163750814Y-87638931D02*
X163834635Y-88083555D01*
X164143920Y-88211053D01*
X164453206Y-88338551D01*
X164824246Y-88086246D01*
X164928157Y-88015996D01*
X165022087Y-87953272D01*
X165101652Y-87900938D01*
X165162470Y-87861857D01*
X165200157Y-87838893D01*
X165210421Y-87833942D01*
X165228910Y-87846676D01*
X165268420Y-87881882D01*
X165324522Y-87935062D01*
X165392787Y-88001718D01*
X165468786Y-88077354D01*
X165548092Y-88157472D01*
X165626275Y-88237574D01*
X165698907Y-88313164D01*
X165761559Y-88379745D01*
X165809803Y-88432818D01*
X165839210Y-88467887D01*
X165846241Y-88479623D01*
X165836123Y-88501260D01*
X165807759Y-88548662D01*
X165764129Y-88617193D01*
X165708218Y-88702215D01*
X165643006Y-88799093D01*
X165605219Y-88854350D01*
X165536343Y-88955248D01*
X165475140Y-89046299D01*
X165424578Y-89122970D01*
X165387628Y-89180728D01*
X165367258Y-89215043D01*
X165364197Y-89222254D01*
X165371136Y-89242748D01*
X165390051Y-89290513D01*
X165418087Y-89358832D01*
X165452391Y-89440989D01*
X165490109Y-89530270D01*
X165528387Y-89619958D01*
X165564370Y-89703338D01*
X165595206Y-89773694D01*
X165618039Y-89824310D01*
X165630017Y-89848471D01*
X165630724Y-89849422D01*
X165649531Y-89854036D01*
X165699618Y-89864328D01*
X165775793Y-89879287D01*
X165872865Y-89897901D01*
X165985643Y-89919159D01*
X166051442Y-89931418D01*
X166171950Y-89954362D01*
X166280797Y-89976195D01*
X166372476Y-89995722D01*
X166441481Y-90011748D01*
X166482304Y-90023079D01*
X166490511Y-90026674D01*
X166498548Y-90051006D01*
X166505033Y-90105959D01*
X166509970Y-90185108D01*
X166513364Y-90282026D01*
X166515218Y-90390287D01*
X166515538Y-90503465D01*
X166514327Y-90615135D01*
X166511590Y-90718868D01*
X166507331Y-90808241D01*
X166501555Y-90876826D01*
X166494267Y-90918197D01*
X166489895Y-90926810D01*
X166463764Y-90937133D01*
X166408393Y-90951892D01*
X166331107Y-90969352D01*
X166239230Y-90987780D01*
X166207158Y-90993741D01*
X166052524Y-91022066D01*
X165930375Y-91044876D01*
X165836673Y-91063080D01*
X165767384Y-91077583D01*
X165718471Y-91089292D01*
X165685897Y-91099115D01*
X165665628Y-91107956D01*
X165653626Y-91116724D01*
X165651947Y-91118457D01*
X165635184Y-91146371D01*
X165609614Y-91200695D01*
X165577788Y-91274777D01*
X165542260Y-91361965D01*
X165505583Y-91455608D01*
X165470311Y-91549052D01*
X165438996Y-91635647D01*
X165414193Y-91708740D01*
X165398454Y-91761678D01*
X165394332Y-91787811D01*
X165394676Y-91788726D01*
X165408641Y-91810086D01*
X165440322Y-91857084D01*
X165486391Y-91924827D01*
X165543518Y-92008423D01*
X165608373Y-92102982D01*
X165626843Y-92129854D01*
X165692699Y-92227275D01*
X165750650Y-92316163D01*
X165797538Y-92391412D01*
X165830207Y-92447920D01*
X165845500Y-92480581D01*
X165846241Y-92484593D01*
X165833392Y-92505684D01*
X165797888Y-92547464D01*
X165744293Y-92605445D01*
X165677171Y-92675135D01*
X165601087Y-92752045D01*
X165520604Y-92831683D01*
X165440287Y-92909561D01*
X165364699Y-92981186D01*
X165298405Y-93042070D01*
X165245969Y-93087721D01*
X165211955Y-93113650D01*
X165202545Y-93117883D01*
X165180643Y-93107912D01*
X165135800Y-93081020D01*
X165075321Y-93041736D01*
X165028789Y-93010117D01*
X164944475Y-92952098D01*
X164844626Y-92883784D01*
X164744473Y-92815579D01*
X164690627Y-92779075D01*
X164508371Y-92655800D01*
X164355381Y-92738520D01*
X164285682Y-92774759D01*
X164226414Y-92802926D01*
X164186311Y-92818991D01*
X164176103Y-92821226D01*
X164163829Y-92804722D01*
X164139613Y-92758082D01*
X164105263Y-92685609D01*
X164062588Y-92591606D01*
X164013394Y-92480374D01*
X163959490Y-92356215D01*
X163902684Y-92223432D01*
X163844782Y-92086327D01*
X163787593Y-91949202D01*
X163732924Y-91816358D01*
X163682584Y-91692098D01*
X163638380Y-91580725D01*
X163602119Y-91486539D01*
X163575609Y-91413844D01*
X163560658Y-91366941D01*
X163558254Y-91350833D01*
X163577311Y-91330286D01*
X163619036Y-91296933D01*
X163674706Y-91257702D01*
X163679378Y-91254599D01*
X163823264Y-91139423D01*
X163939283Y-91005053D01*
X164026430Y-90855784D01*
X164083699Y-90695913D01*
X164110086Y-90529737D01*
X164104585Y-90361552D01*
X164066190Y-90195655D01*
X163993895Y-90036342D01*
X163972626Y-90001487D01*
X163861996Y-89860737D01*
X163731302Y-89747714D01*
X163585064Y-89663003D01*
X163427808Y-89607194D01*
X163264057Y-89580874D01*
X163098333Y-89584630D01*
X162935162Y-89619050D01*
X162779065Y-89684723D01*
X162634567Y-89782235D01*
X162589869Y-89821813D01*
X162476112Y-89945703D01*
X162393218Y-90076124D01*
X162336356Y-90222315D01*
X162304687Y-90367088D01*
X162296869Y-90529860D01*
X162322938Y-90693440D01*
X162380245Y-90852298D01*
X162466144Y-91000906D01*
X162577986Y-91133735D01*
X162713123Y-91245256D01*
X162730883Y-91257011D01*
X162787150Y-91295508D01*
X162829923Y-91328863D01*
X162850372Y-91350160D01*
X162850669Y-91350833D01*
X162846279Y-91373871D01*
X162828876Y-91426157D01*
X162800268Y-91503390D01*
X162762265Y-91601268D01*
X162716674Y-91715491D01*
X162665303Y-91841758D01*
X162609962Y-91975767D01*
X162552458Y-92113218D01*
X162494601Y-92249808D01*
X162438198Y-92381237D01*
X162385058Y-92503205D01*
X162336990Y-92611409D01*
X162295801Y-92701549D01*
X162263301Y-92769323D01*
X162241297Y-92810430D01*
X162232436Y-92821226D01*
X162205360Y-92812819D01*
X162154697Y-92790272D01*
X162089183Y-92757613D01*
X162053159Y-92738520D01*
X161900168Y-92655800D01*
X161717912Y-92779075D01*
X161624875Y-92842228D01*
X161523015Y-92911727D01*
X161427562Y-92977165D01*
X161379750Y-93010117D01*
X161312505Y-93055273D01*
X161255564Y-93091057D01*
X161216354Y-93112938D01*
X161203619Y-93117563D01*
X161185083Y-93105085D01*
X161144059Y-93070252D01*
X161084525Y-93016678D01*
X161010458Y-92947983D01*
X160925835Y-92867781D01*
X160872315Y-92816286D01*
X160778681Y-92724286D01*
X160697759Y-92641999D01*
X160632823Y-92572945D01*
X160587142Y-92520644D01*
X160563989Y-92488616D01*
X160561768Y-92482116D01*
X160572076Y-92457394D01*
X160600561Y-92407405D01*
X160644063Y-92337212D01*
X160699423Y-92251875D01*
X160763480Y-92156456D01*
X160781697Y-92129854D01*
X160848073Y-92033167D01*
X160907622Y-91946117D01*
X160957016Y-91873595D01*
X160992925Y-91820493D01*
X161012019Y-91791703D01*
X161013864Y-91788726D01*
X161011105Y-91765782D01*
X160996462Y-91715336D01*
X160972487Y-91644041D01*
X160941734Y-91558547D01*
X160906756Y-91465507D01*
X160870107Y-91371574D01*
X160834339Y-91283399D01*
X160802006Y-91207634D01*
X160775662Y-91150931D01*
X160757858Y-91119943D01*
X160756593Y-91118457D01*
X160745706Y-91109601D01*
X160727318Y-91100843D01*
X160697394Y-91091277D01*
X160651897Y-91079996D01*
X160586791Y-91066093D01*
X160498039Y-91048663D01*
X160381607Y-91026798D01*
X160233458Y-90999591D01*
X160201382Y-90993741D01*
X160106314Y-90975374D01*
X160023435Y-90957405D01*
X159960070Y-90941569D01*
X159923542Y-90929600D01*
X159918644Y-90926810D01*
X159910573Y-90902072D01*
X159904013Y-90846790D01*
X159898967Y-90767389D01*
X159895441Y-90670296D01*
X159893439Y-90561938D01*
X159892964Y-90448740D01*
X159894023Y-90337128D01*
X159896618Y-90233529D01*
X159900754Y-90144368D01*
X159906437Y-90076072D01*
X159913669Y-90035066D01*
X159918029Y-90026674D01*
X159942302Y-90018208D01*
X159997574Y-90004435D01*
X160078338Y-89986550D01*
X160179088Y-89965748D01*
X160294317Y-89943223D01*
X160357098Y-89931418D01*
X160476213Y-89909151D01*
X160582435Y-89888979D01*
X160670573Y-89871915D01*
X160735434Y-89858969D01*
X160771826Y-89851155D01*
X160777816Y-89849422D01*
X160787939Y-89829890D01*
X160809338Y-89782843D01*
X160839161Y-89715003D01*
X160874555Y-89633091D01*
X160912668Y-89543828D01*
X160950647Y-89453935D01*
X160985640Y-89370135D01*
X161014794Y-89299147D01*
X161035257Y-89247694D01*
X161044177Y-89222497D01*
X161044343Y-89221396D01*
X161034231Y-89201519D01*
X161005883Y-89155777D01*
X160962277Y-89088717D01*
X160906394Y-89004884D01*
X160841213Y-88908826D01*
X160803321Y-88853650D01*
X160734275Y-88752481D01*
X160672950Y-88660630D01*
X160622337Y-88582744D01*
X160585429Y-88523469D01*
X160565218Y-88487451D01*
X160562299Y-88479377D01*
X160574847Y-88460584D01*
X160609537Y-88420457D01*
X160661937Y-88363493D01*
X160727616Y-88294185D01*
X160802144Y-88217031D01*
X160881087Y-88136525D01*
X160960017Y-88057163D01*
X161034500Y-87983440D01*
X161100106Y-87919852D01*
X161152404Y-87870894D01*
X161186961Y-87841061D01*
X161198522Y-87833942D01*
X161217346Y-87843953D01*
X161262369Y-87872078D01*
X161329213Y-87915454D01*
X161413501Y-87971218D01*
X161510856Y-88036506D01*
X161584293Y-88086246D01*
X161955333Y-88338551D01*
X162573905Y-88083555D01*
X162657725Y-87638931D01*
X162741546Y-87194307D01*
X163666994Y-87194307D01*
X163750814Y-87638931D01*
D13*
X146351666Y-84542380D02*
X146351666Y-85256666D01*
X146304047Y-85399523D01*
X146208809Y-85494761D01*
X146065952Y-85542380D01*
X145970714Y-85542380D01*
X147256428Y-84875714D02*
X147256428Y-85542380D01*
X147018333Y-84494761D02*
X146780238Y-85209047D01*
X147399285Y-85209047D01*
X163766666Y-110259761D02*
X163909523Y-110307380D01*
X164147619Y-110307380D01*
X164242857Y-110259761D01*
X164290476Y-110212142D01*
X164338095Y-110116904D01*
X164338095Y-110021666D01*
X164290476Y-109926428D01*
X164242857Y-109878809D01*
X164147619Y-109831190D01*
X163957142Y-109783571D01*
X163861904Y-109735952D01*
X163814285Y-109688333D01*
X163766666Y-109593095D01*
X163766666Y-109497857D01*
X163814285Y-109402619D01*
X163861904Y-109355000D01*
X163957142Y-109307380D01*
X164195238Y-109307380D01*
X164338095Y-109355000D01*
X164671428Y-109307380D02*
X164909523Y-110307380D01*
X165100000Y-109593095D01*
X165290476Y-110307380D01*
X165528571Y-109307380D01*
X166433333Y-110307380D02*
X165861904Y-110307380D01*
X166147619Y-110307380D02*
X166147619Y-109307380D01*
X166052380Y-109450238D01*
X165957142Y-109545476D01*
X165861904Y-109593095D01*
X141406666Y-111847380D02*
X141406666Y-112561666D01*
X141359047Y-112704523D01*
X141263809Y-112799761D01*
X141120952Y-112847380D01*
X141025714Y-112847380D01*
X141882857Y-112847380D02*
X141882857Y-111847380D01*
X142263809Y-111847380D01*
X142359047Y-111895000D01*
X142406666Y-111942619D01*
X142454285Y-112037857D01*
X142454285Y-112180714D01*
X142406666Y-112275952D01*
X142359047Y-112323571D01*
X142263809Y-112371190D01*
X141882857Y-112371190D01*
X143406666Y-112847380D02*
X142835238Y-112847380D01*
X143120952Y-112847380D02*
X143120952Y-111847380D01*
X143025714Y-111990238D01*
X142930476Y-112085476D01*
X142835238Y-112133095D01*
X146939047Y-109926428D02*
X147700952Y-109926428D01*
X147320000Y-110307380D02*
X147320000Y-109545476D01*
X161290000Y-99512380D02*
X161290000Y-98512380D01*
X164338095Y-111652000D02*
X164242857Y-111604380D01*
X164100000Y-111604380D01*
X163957142Y-111652000D01*
X163861904Y-111747238D01*
X163814285Y-111842476D01*
X163766666Y-112032952D01*
X163766666Y-112175809D01*
X163814285Y-112366285D01*
X163861904Y-112461523D01*
X163957142Y-112556761D01*
X164100000Y-112604380D01*
X164195238Y-112604380D01*
X164338095Y-112556761D01*
X164385714Y-112509142D01*
X164385714Y-112175809D01*
X164195238Y-112175809D01*
X164814285Y-112604380D02*
X164814285Y-111604380D01*
X165385714Y-112604380D01*
X165385714Y-111604380D01*
X165861904Y-112604380D02*
X165861904Y-111604380D01*
X166100000Y-111604380D01*
X166242857Y-111652000D01*
X166338095Y-111747238D01*
X166385714Y-111842476D01*
X166433333Y-112032952D01*
X166433333Y-112175809D01*
X166385714Y-112366285D01*
X166338095Y-112461523D01*
X166242857Y-112556761D01*
X166100000Y-112604380D01*
X165861904Y-112604380D01*
X149375952Y-113350571D02*
X149518809Y-113398190D01*
X149566428Y-113445809D01*
X149614047Y-113541047D01*
X149614047Y-113683904D01*
X149566428Y-113779142D01*
X149518809Y-113826761D01*
X149423571Y-113874380D01*
X149042619Y-113874380D01*
X149042619Y-112874380D01*
X149375952Y-112874380D01*
X149471190Y-112922000D01*
X149518809Y-112969619D01*
X149566428Y-113064857D01*
X149566428Y-113160095D01*
X149518809Y-113255333D01*
X149471190Y-113302952D01*
X149375952Y-113350571D01*
X149042619Y-113350571D01*
X149995000Y-113588666D02*
X150471190Y-113588666D01*
X149899761Y-113874380D02*
X150233095Y-112874380D01*
X150566428Y-113874380D01*
X150756904Y-112874380D02*
X151328333Y-112874380D01*
X151042619Y-113874380D02*
X151042619Y-112874380D01*
X151518809Y-112874380D02*
X152090238Y-112874380D01*
X151804523Y-113874380D02*
X151804523Y-112874380D01*
X149669523Y-108672380D02*
X149193333Y-108672380D01*
X149145714Y-109148571D01*
X149193333Y-109100952D01*
X149288571Y-109053333D01*
X149526666Y-109053333D01*
X149621904Y-109100952D01*
X149669523Y-109148571D01*
X149717142Y-109243809D01*
X149717142Y-109481904D01*
X149669523Y-109577142D01*
X149621904Y-109624761D01*
X149526666Y-109672380D01*
X149288571Y-109672380D01*
X149193333Y-109624761D01*
X149145714Y-109577142D01*
X150002857Y-108672380D02*
X150336190Y-109672380D01*
X150669523Y-108672380D01*
X134453333Y-113387142D02*
X134405714Y-113434761D01*
X134262857Y-113482380D01*
X134167619Y-113482380D01*
X134024761Y-113434761D01*
X133929523Y-113339523D01*
X133881904Y-113244285D01*
X133834285Y-113053809D01*
X133834285Y-112910952D01*
X133881904Y-112720476D01*
X133929523Y-112625238D01*
X134024761Y-112530000D01*
X134167619Y-112482380D01*
X134262857Y-112482380D01*
X134405714Y-112530000D01*
X134453333Y-112577619D01*
X135405714Y-113482380D02*
X134834285Y-113482380D01*
X135120000Y-113482380D02*
X135120000Y-112482380D01*
X135024761Y-112625238D01*
X134929523Y-112720476D01*
X134834285Y-112768095D01*
X161123333Y-108307142D02*
X161075714Y-108354761D01*
X160932857Y-108402380D01*
X160837619Y-108402380D01*
X160694761Y-108354761D01*
X160599523Y-108259523D01*
X160551904Y-108164285D01*
X160504285Y-107973809D01*
X160504285Y-107830952D01*
X160551904Y-107640476D01*
X160599523Y-107545238D01*
X160694761Y-107450000D01*
X160837619Y-107402380D01*
X160932857Y-107402380D01*
X161075714Y-107450000D01*
X161123333Y-107497619D01*
X161504285Y-107497619D02*
X161551904Y-107450000D01*
X161647142Y-107402380D01*
X161885238Y-107402380D01*
X161980476Y-107450000D01*
X162028095Y-107497619D01*
X162075714Y-107592857D01*
X162075714Y-107688095D01*
X162028095Y-107830952D01*
X161456666Y-108402380D01*
X162075714Y-108402380D01*
X157948333Y-96242142D02*
X157900714Y-96289761D01*
X157757857Y-96337380D01*
X157662619Y-96337380D01*
X157519761Y-96289761D01*
X157424523Y-96194523D01*
X157376904Y-96099285D01*
X157329285Y-95908809D01*
X157329285Y-95765952D01*
X157376904Y-95575476D01*
X157424523Y-95480238D01*
X157519761Y-95385000D01*
X157662619Y-95337380D01*
X157757857Y-95337380D01*
X157900714Y-95385000D01*
X157948333Y-95432619D01*
X158281666Y-95337380D02*
X158900714Y-95337380D01*
X158567380Y-95718333D01*
X158710238Y-95718333D01*
X158805476Y-95765952D01*
X158853095Y-95813571D01*
X158900714Y-95908809D01*
X158900714Y-96146904D01*
X158853095Y-96242142D01*
X158805476Y-96289761D01*
X158710238Y-96337380D01*
X158424523Y-96337380D01*
X158329285Y-96289761D01*
X158281666Y-96242142D01*
X153289047Y-116911428D02*
X154050952Y-116911428D01*
X153670000Y-117292380D02*
X153670000Y-116530476D01*
X163449047Y-94686428D02*
X164210952Y-94686428D01*
X163830000Y-95067380D02*
X163830000Y-94305476D01*
X128571666Y-111212380D02*
X128571666Y-111926666D01*
X128524047Y-112069523D01*
X128428809Y-112164761D01*
X128285952Y-112212380D01*
X128190714Y-112212380D01*
X129571666Y-112212380D02*
X129000238Y-112212380D01*
X129285952Y-112212380D02*
X129285952Y-111212380D01*
X129190714Y-111355238D01*
X129095476Y-111450476D01*
X129000238Y-111498095D01*
X156106904Y-100147380D02*
X156106904Y-99147380D01*
X156345000Y-99147380D01*
X156487857Y-99195000D01*
X156583095Y-99290238D01*
X156630714Y-99385476D01*
X156678333Y-99575952D01*
X156678333Y-99718809D01*
X156630714Y-99909285D01*
X156583095Y-100004523D01*
X156487857Y-100099761D01*
X156345000Y-100147380D01*
X156106904Y-100147380D01*
X157011666Y-99147380D02*
X157630714Y-99147380D01*
X157297380Y-99528333D01*
X157440238Y-99528333D01*
X157535476Y-99575952D01*
X157583095Y-99623571D01*
X157630714Y-99718809D01*
X157630714Y-99956904D01*
X157583095Y-100052142D01*
X157535476Y-100099761D01*
X157440238Y-100147380D01*
X157154523Y-100147380D01*
X157059285Y-100099761D01*
X157011666Y-100052142D01*
X150963333Y-111577380D02*
X150487142Y-111577380D01*
X150487142Y-110577380D01*
X151820476Y-111577380D02*
X151249047Y-111577380D01*
X151534761Y-111577380D02*
X151534761Y-110577380D01*
X151439523Y-110720238D01*
X151344285Y-110815476D01*
X151249047Y-110863095D01*
X136421904Y-121102380D02*
X136421904Y-120102380D01*
X136660000Y-120102380D01*
X136802857Y-120150000D01*
X136898095Y-120245238D01*
X136945714Y-120340476D01*
X136993333Y-120530952D01*
X136993333Y-120673809D01*
X136945714Y-120864285D01*
X136898095Y-120959523D01*
X136802857Y-121054761D01*
X136660000Y-121102380D01*
X136421904Y-121102380D01*
X137945714Y-121102380D02*
X137374285Y-121102380D01*
X137660000Y-121102380D02*
X137660000Y-120102380D01*
X137564761Y-120245238D01*
X137469523Y-120340476D01*
X137374285Y-120388095D01*
X128801904Y-99512380D02*
X128801904Y-98512380D01*
X129040000Y-98512380D01*
X129182857Y-98560000D01*
X129278095Y-98655238D01*
X129325714Y-98750476D01*
X129373333Y-98940952D01*
X129373333Y-99083809D01*
X129325714Y-99274285D01*
X129278095Y-99369523D01*
X129182857Y-99464761D01*
X129040000Y-99512380D01*
X128801904Y-99512380D01*
X129754285Y-98607619D02*
X129801904Y-98560000D01*
X129897142Y-98512380D01*
X130135238Y-98512380D01*
X130230476Y-98560000D01*
X130278095Y-98607619D01*
X130325714Y-98702857D01*
X130325714Y-98798095D01*
X130278095Y-98940952D01*
X129706666Y-99512380D01*
X130325714Y-99512380D01*
X142144761Y-102187619D02*
X142049523Y-102140000D01*
X141954285Y-102044761D01*
X141811428Y-101901904D01*
X141716190Y-101854285D01*
X141620952Y-101854285D01*
X141668571Y-102092380D02*
X141573333Y-102044761D01*
X141478095Y-101949523D01*
X141430476Y-101759047D01*
X141430476Y-101425714D01*
X141478095Y-101235238D01*
X141573333Y-101140000D01*
X141668571Y-101092380D01*
X141859047Y-101092380D01*
X141954285Y-101140000D01*
X142049523Y-101235238D01*
X142097142Y-101425714D01*
X142097142Y-101759047D01*
X142049523Y-101949523D01*
X141954285Y-102044761D01*
X141859047Y-102092380D01*
X141668571Y-102092380D01*
X143049523Y-102092380D02*
X142478095Y-102092380D01*
X142763809Y-102092380D02*
X142763809Y-101092380D01*
X142668571Y-101235238D01*
X142573333Y-101330476D01*
X142478095Y-101378095D01*
X145954761Y-102187619D02*
X145859523Y-102140000D01*
X145764285Y-102044761D01*
X145621428Y-101901904D01*
X145526190Y-101854285D01*
X145430952Y-101854285D01*
X145478571Y-102092380D02*
X145383333Y-102044761D01*
X145288095Y-101949523D01*
X145240476Y-101759047D01*
X145240476Y-101425714D01*
X145288095Y-101235238D01*
X145383333Y-101140000D01*
X145478571Y-101092380D01*
X145669047Y-101092380D01*
X145764285Y-101140000D01*
X145859523Y-101235238D01*
X145907142Y-101425714D01*
X145907142Y-101759047D01*
X145859523Y-101949523D01*
X145764285Y-102044761D01*
X145669047Y-102092380D01*
X145478571Y-102092380D01*
X146288095Y-101187619D02*
X146335714Y-101140000D01*
X146430952Y-101092380D01*
X146669047Y-101092380D01*
X146764285Y-101140000D01*
X146811904Y-101187619D01*
X146859523Y-101282857D01*
X146859523Y-101378095D01*
X146811904Y-101520952D01*
X146240476Y-102092380D01*
X146859523Y-102092380D01*
X159258095Y-99782380D02*
X159258095Y-100591904D01*
X159305714Y-100687142D01*
X159353333Y-100734761D01*
X159448571Y-100782380D01*
X159639047Y-100782380D01*
X159734285Y-100734761D01*
X159781904Y-100687142D01*
X159829523Y-100591904D01*
X159829523Y-99782380D01*
X160258095Y-99877619D02*
X160305714Y-99830000D01*
X160400952Y-99782380D01*
X160639047Y-99782380D01*
X160734285Y-99830000D01*
X160781904Y-99877619D01*
X160829523Y-99972857D01*
X160829523Y-100068095D01*
X160781904Y-100210952D01*
X160210476Y-100782380D01*
X160829523Y-100782380D01*
X137668095Y-112482380D02*
X137668095Y-113291904D01*
X137715714Y-113387142D01*
X137763333Y-113434761D01*
X137858571Y-113482380D01*
X138049047Y-113482380D01*
X138144285Y-113434761D01*
X138191904Y-113387142D01*
X138239523Y-113291904D01*
X138239523Y-112482380D01*
X139239523Y-113482380D02*
X138668095Y-113482380D01*
X138953809Y-113482380D02*
X138953809Y-112482380D01*
X138858571Y-112625238D01*
X138763333Y-112720476D01*
X138668095Y-112768095D01*
X139104761Y-98877380D02*
X138771428Y-98401190D01*
X138533333Y-98877380D02*
X138533333Y-97877380D01*
X138914285Y-97877380D01*
X139009523Y-97925000D01*
X139057142Y-97972619D01*
X139104761Y-98067857D01*
X139104761Y-98210714D01*
X139057142Y-98305952D01*
X139009523Y-98353571D01*
X138914285Y-98401190D01*
X138533333Y-98401190D01*
X139390476Y-97877380D02*
X139723809Y-98877380D01*
X140057142Y-97877380D01*
X140914285Y-98877380D02*
X140342857Y-98877380D01*
X140628571Y-98877380D02*
X140628571Y-97877380D01*
X140533333Y-98020238D01*
X140438095Y-98115476D01*
X140342857Y-98163095D01*
X149067778Y-99145294D02*
X148734445Y-98669104D01*
X148496350Y-99145294D02*
X148496350Y-98145294D01*
X148877302Y-98145294D01*
X148972540Y-98192914D01*
X149020159Y-98240533D01*
X149067778Y-98335771D01*
X149067778Y-98478628D01*
X149020159Y-98573866D01*
X148972540Y-98621485D01*
X148877302Y-98669104D01*
X148496350Y-98669104D01*
X150020159Y-99145294D02*
X149448731Y-99145294D01*
X149734445Y-99145294D02*
X149734445Y-98145294D01*
X149639207Y-98288152D01*
X149543969Y-98383390D01*
X149448731Y-98431009D01*
X150972540Y-99145294D02*
X150401112Y-99145294D01*
X150686826Y-99145294D02*
X150686826Y-98145294D01*
X150591588Y-98288152D01*
X150496350Y-98383390D01*
X150401112Y-98431009D01*
X138898333Y-102052380D02*
X138565000Y-101576190D01*
X138326904Y-102052380D02*
X138326904Y-101052380D01*
X138707857Y-101052380D01*
X138803095Y-101100000D01*
X138850714Y-101147619D01*
X138898333Y-101242857D01*
X138898333Y-101385714D01*
X138850714Y-101480952D01*
X138803095Y-101528571D01*
X138707857Y-101576190D01*
X138326904Y-101576190D01*
X139231666Y-101052380D02*
X139898333Y-101052380D01*
X139469761Y-102052380D01*
X131913333Y-102052380D02*
X131580000Y-101576190D01*
X131341904Y-102052380D02*
X131341904Y-101052380D01*
X131722857Y-101052380D01*
X131818095Y-101100000D01*
X131865714Y-101147619D01*
X131913333Y-101242857D01*
X131913333Y-101385714D01*
X131865714Y-101480952D01*
X131818095Y-101528571D01*
X131722857Y-101576190D01*
X131341904Y-101576190D01*
X132770476Y-101052380D02*
X132580000Y-101052380D01*
X132484761Y-101100000D01*
X132437142Y-101147619D01*
X132341904Y-101290476D01*
X132294285Y-101480952D01*
X132294285Y-101861904D01*
X132341904Y-101957142D01*
X132389523Y-102004761D01*
X132484761Y-102052380D01*
X132675238Y-102052380D01*
X132770476Y-102004761D01*
X132818095Y-101957142D01*
X132865714Y-101861904D01*
X132865714Y-101623809D01*
X132818095Y-101528571D01*
X132770476Y-101480952D01*
X132675238Y-101433333D01*
X132484761Y-101433333D01*
X132389523Y-101480952D01*
X132341904Y-101528571D01*
X132294285Y-101623809D01*
X131913333Y-104592380D02*
X131580000Y-104116190D01*
X131341904Y-104592380D02*
X131341904Y-103592380D01*
X131722857Y-103592380D01*
X131818095Y-103640000D01*
X131865714Y-103687619D01*
X131913333Y-103782857D01*
X131913333Y-103925714D01*
X131865714Y-104020952D01*
X131818095Y-104068571D01*
X131722857Y-104116190D01*
X131341904Y-104116190D01*
X132818095Y-103592380D02*
X132341904Y-103592380D01*
X132294285Y-104068571D01*
X132341904Y-104020952D01*
X132437142Y-103973333D01*
X132675238Y-103973333D01*
X132770476Y-104020952D01*
X132818095Y-104068571D01*
X132865714Y-104163809D01*
X132865714Y-104401904D01*
X132818095Y-104497142D01*
X132770476Y-104544761D01*
X132675238Y-104592380D01*
X132437142Y-104592380D01*
X132341904Y-104544761D01*
X132294285Y-104497142D01*
X131913333Y-107132380D02*
X131580000Y-106656190D01*
X131341904Y-107132380D02*
X131341904Y-106132380D01*
X131722857Y-106132380D01*
X131818095Y-106180000D01*
X131865714Y-106227619D01*
X131913333Y-106322857D01*
X131913333Y-106465714D01*
X131865714Y-106560952D01*
X131818095Y-106608571D01*
X131722857Y-106656190D01*
X131341904Y-106656190D01*
X132770476Y-106465714D02*
X132770476Y-107132380D01*
X132532380Y-106084761D02*
X132294285Y-106799047D01*
X132913333Y-106799047D01*
X145883333Y-117292380D02*
X145550000Y-116816190D01*
X145311904Y-117292380D02*
X145311904Y-116292380D01*
X145692857Y-116292380D01*
X145788095Y-116340000D01*
X145835714Y-116387619D01*
X145883333Y-116482857D01*
X145883333Y-116625714D01*
X145835714Y-116720952D01*
X145788095Y-116768571D01*
X145692857Y-116816190D01*
X145311904Y-116816190D01*
X146216666Y-116292380D02*
X146835714Y-116292380D01*
X146502380Y-116673333D01*
X146645238Y-116673333D01*
X146740476Y-116720952D01*
X146788095Y-116768571D01*
X146835714Y-116863809D01*
X146835714Y-117101904D01*
X146788095Y-117197142D01*
X146740476Y-117244761D01*
X146645238Y-117292380D01*
X146359523Y-117292380D01*
X146264285Y-117244761D01*
X146216666Y-117197142D01*
X139533333Y-121102380D02*
X139200000Y-120626190D01*
X138961904Y-121102380D02*
X138961904Y-120102380D01*
X139342857Y-120102380D01*
X139438095Y-120150000D01*
X139485714Y-120197619D01*
X139533333Y-120292857D01*
X139533333Y-120435714D01*
X139485714Y-120530952D01*
X139438095Y-120578571D01*
X139342857Y-120626190D01*
X138961904Y-120626190D01*
X140485714Y-121102380D02*
X139914285Y-121102380D01*
X140200000Y-121102380D02*
X140200000Y-120102380D01*
X140104761Y-120245238D01*
X140009523Y-120340476D01*
X139914285Y-120388095D01*
X140168333Y-107767380D02*
X139835000Y-107291190D01*
X139596904Y-107767380D02*
X139596904Y-106767380D01*
X139977857Y-106767380D01*
X140073095Y-106815000D01*
X140120714Y-106862619D01*
X140168333Y-106957857D01*
X140168333Y-107100714D01*
X140120714Y-107195952D01*
X140073095Y-107243571D01*
X139977857Y-107291190D01*
X139596904Y-107291190D01*
X140739761Y-107195952D02*
X140644523Y-107148333D01*
X140596904Y-107100714D01*
X140549285Y-107005476D01*
X140549285Y-106957857D01*
X140596904Y-106862619D01*
X140644523Y-106815000D01*
X140739761Y-106767380D01*
X140930238Y-106767380D01*
X141025476Y-106815000D01*
X141073095Y-106862619D01*
X141120714Y-106957857D01*
X141120714Y-107005476D01*
X141073095Y-107100714D01*
X141025476Y-107148333D01*
X140930238Y-107195952D01*
X140739761Y-107195952D01*
X140644523Y-107243571D01*
X140596904Y-107291190D01*
X140549285Y-107386428D01*
X140549285Y-107576904D01*
X140596904Y-107672142D01*
X140644523Y-107719761D01*
X140739761Y-107767380D01*
X140930238Y-107767380D01*
X141025476Y-107719761D01*
X141073095Y-107672142D01*
X141120714Y-107576904D01*
X141120714Y-107386428D01*
X141073095Y-107291190D01*
X141025476Y-107243571D01*
X140930238Y-107195952D01*
X129373333Y-108402380D02*
X129040000Y-107926190D01*
X128801904Y-108402380D02*
X128801904Y-107402380D01*
X129182857Y-107402380D01*
X129278095Y-107450000D01*
X129325714Y-107497619D01*
X129373333Y-107592857D01*
X129373333Y-107735714D01*
X129325714Y-107830952D01*
X129278095Y-107878571D01*
X129182857Y-107926190D01*
X128801904Y-107926190D01*
X129849523Y-108402380D02*
X130040000Y-108402380D01*
X130135238Y-108354761D01*
X130182857Y-108307142D01*
X130278095Y-108164285D01*
X130325714Y-107973809D01*
X130325714Y-107592857D01*
X130278095Y-107497619D01*
X130230476Y-107450000D01*
X130135238Y-107402380D01*
X129944761Y-107402380D01*
X129849523Y-107450000D01*
X129801904Y-107497619D01*
X129754285Y-107592857D01*
X129754285Y-107830952D01*
X129801904Y-107926190D01*
X129849523Y-107973809D01*
X129944761Y-108021428D01*
X130135238Y-108021428D01*
X130230476Y-107973809D01*
X130278095Y-107926190D01*
X130325714Y-107830952D01*
X149067778Y-97240294D02*
X148734445Y-96764104D01*
X148496350Y-97240294D02*
X148496350Y-96240294D01*
X148877302Y-96240294D01*
X148972540Y-96287914D01*
X149020159Y-96335533D01*
X149067778Y-96430771D01*
X149067778Y-96573628D01*
X149020159Y-96668866D01*
X148972540Y-96716485D01*
X148877302Y-96764104D01*
X148496350Y-96764104D01*
X150020159Y-97240294D02*
X149448731Y-97240294D01*
X149734445Y-97240294D02*
X149734445Y-96240294D01*
X149639207Y-96383152D01*
X149543969Y-96478390D01*
X149448731Y-96526009D01*
X150639207Y-96240294D02*
X150734445Y-96240294D01*
X150829683Y-96287914D01*
X150877302Y-96335533D01*
X150924921Y-96430771D01*
X150972540Y-96621247D01*
X150972540Y-96859342D01*
X150924921Y-97049818D01*
X150877302Y-97145056D01*
X150829683Y-97192675D01*
X150734445Y-97240294D01*
X150639207Y-97240294D01*
X150543969Y-97192675D01*
X150496350Y-97145056D01*
X150448731Y-97049818D01*
X150401112Y-96859342D01*
X150401112Y-96621247D01*
X150448731Y-96430771D01*
X150496350Y-96335533D01*
X150543969Y-96287914D01*
X150639207Y-96240294D01*
X149067778Y-101050294D02*
X148734445Y-100574104D01*
X148496350Y-101050294D02*
X148496350Y-100050294D01*
X148877302Y-100050294D01*
X148972540Y-100097914D01*
X149020159Y-100145533D01*
X149067778Y-100240771D01*
X149067778Y-100383628D01*
X149020159Y-100478866D01*
X148972540Y-100526485D01*
X148877302Y-100574104D01*
X148496350Y-100574104D01*
X150020159Y-101050294D02*
X149448731Y-101050294D01*
X149734445Y-101050294D02*
X149734445Y-100050294D01*
X149639207Y-100193152D01*
X149543969Y-100288390D01*
X149448731Y-100336009D01*
X150401112Y-100145533D02*
X150448731Y-100097914D01*
X150543969Y-100050294D01*
X150782064Y-100050294D01*
X150877302Y-100097914D01*
X150924921Y-100145533D01*
X150972540Y-100240771D01*
X150972540Y-100336009D01*
X150924921Y-100478866D01*
X150353493Y-101050294D01*
X150972540Y-101050294D01*
X149067778Y-102955294D02*
X148734445Y-102479104D01*
X148496350Y-102955294D02*
X148496350Y-101955294D01*
X148877302Y-101955294D01*
X148972540Y-102002914D01*
X149020159Y-102050533D01*
X149067778Y-102145771D01*
X149067778Y-102288628D01*
X149020159Y-102383866D01*
X148972540Y-102431485D01*
X148877302Y-102479104D01*
X148496350Y-102479104D01*
X150020159Y-102955294D02*
X149448731Y-102955294D01*
X149734445Y-102955294D02*
X149734445Y-101955294D01*
X149639207Y-102098152D01*
X149543969Y-102193390D01*
X149448731Y-102241009D01*
X150353493Y-101955294D02*
X150972540Y-101955294D01*
X150639207Y-102336247D01*
X150782064Y-102336247D01*
X150877302Y-102383866D01*
X150924921Y-102431485D01*
X150972540Y-102526723D01*
X150972540Y-102764818D01*
X150924921Y-102860056D01*
X150877302Y-102907675D01*
X150782064Y-102955294D01*
X150496350Y-102955294D01*
X150401112Y-102907675D01*
X150353493Y-102860056D01*
X149067778Y-104860294D02*
X148734445Y-104384104D01*
X148496350Y-104860294D02*
X148496350Y-103860294D01*
X148877302Y-103860294D01*
X148972540Y-103907914D01*
X149020159Y-103955533D01*
X149067778Y-104050771D01*
X149067778Y-104193628D01*
X149020159Y-104288866D01*
X148972540Y-104336485D01*
X148877302Y-104384104D01*
X148496350Y-104384104D01*
X150020159Y-104860294D02*
X149448731Y-104860294D01*
X149734445Y-104860294D02*
X149734445Y-103860294D01*
X149639207Y-104003152D01*
X149543969Y-104098390D01*
X149448731Y-104146009D01*
X150877302Y-104193628D02*
X150877302Y-104860294D01*
X150639207Y-103812675D02*
X150401112Y-104526961D01*
X151020159Y-104526961D01*
X142708333Y-121102380D02*
X142375000Y-120626190D01*
X142136904Y-121102380D02*
X142136904Y-120102380D01*
X142517857Y-120102380D01*
X142613095Y-120150000D01*
X142660714Y-120197619D01*
X142708333Y-120292857D01*
X142708333Y-120435714D01*
X142660714Y-120530952D01*
X142613095Y-120578571D01*
X142517857Y-120626190D01*
X142136904Y-120626190D01*
X143089285Y-120197619D02*
X143136904Y-120150000D01*
X143232142Y-120102380D01*
X143470238Y-120102380D01*
X143565476Y-120150000D01*
X143613095Y-120197619D01*
X143660714Y-120292857D01*
X143660714Y-120388095D01*
X143613095Y-120530952D01*
X143041666Y-121102380D01*
X143660714Y-121102380D01*
M02*
